<svg width="1440" height="919" viewBox="0 0 1440 919" fill="none" xmlns="http://www.w3.org/2000/svg">
<path d="M1439.93 836.281C1439.93 836.281 1429.52 848.7 1426.53 868.937C1423.54 889.327 1412.46 902.512 1412.46 902.512" stroke="#F5FAFF" stroke-width="2" stroke-miterlimit="10"/>
<path d="M1439.93 781.089C1439.93 781.089 1404.27 798.567 1394.82 842.567C1385.76 885.341 1349.14 902.666 1349.14 902.666" stroke="#F5FAFF" stroke-width="2" stroke-miterlimit="10"/>
<path d="M1439.93 725.897C1439.93 725.897 1379.01 748.434 1363.21 816.044C1347.88 881.202 1285.81 902.666 1285.81 902.666" stroke="#F5FAFF" stroke-width="2" stroke-miterlimit="10"/>
<path d="M1439.93 670.551C1439.93 670.551 1353.86 698.301 1331.5 789.521C1310.2 877.062 1222.49 902.666 1222.49 902.666" stroke="#F5FAFF" stroke-width="2" stroke-miterlimit="10"/>
<path d="M1439.93 615.359C1439.93 615.359 1328.61 648.168 1299.89 762.998C1272.42 873.076 1159.27 902.665 1159.27 902.665" stroke="#F5FAFF" stroke-width="2" stroke-miterlimit="10"/>
<path d="M1439.93 560.013C1439.93 560.013 1303.36 597.881 1268.18 736.475C1234.54 868.937 1095.94 902.666 1095.94 902.666" stroke="#F5FAFF" stroke-width="2" stroke-miterlimit="10"/>
<path d="M1439.93 504.821C1439.93 504.821 1278.2 547.902 1236.56 709.952C1196.85 864.797 1032.72 902.665 1032.72 902.665" stroke="#F5FAFF" stroke-width="2" stroke-miterlimit="10"/>
<path d="M1439.93 449.629C1439.93 449.629 1252.95 497.769 1204.85 683.583C1158.98 860.811 969.298 902.666 969.298 902.666" stroke="#F5FAFF" stroke-width="2" stroke-miterlimit="10"/>
<path d="M1439.93 394.283C1439.93 394.283 1227.7 447.482 1173.14 656.906C1121.19 856.672 905.975 902.666 905.975 902.666" stroke="#F5FAFF" stroke-width="2" stroke-miterlimit="10"/>
<path d="M1439.93 339.091C1439.93 339.091 1202.54 397.349 1141.53 630.537C1083.41 852.533 842.653 902.666 842.653 902.666" stroke="#F5FAFF" stroke-width="2" stroke-miterlimit="10"/>
<path d="M1439.93 283.898C1439.93 283.898 1177.29 347.37 1109.82 604.014C1045.63 848.546 779.427 902.665 779.427 902.665" stroke="#F5FAFF" stroke-width="2" stroke-miterlimit="10"/>
<path d="M1439.93 228.553C1439.93 228.553 1152.04 297.083 1078.21 577.491C1007.85 844.407 716.104 902.666 716.104 902.666" stroke="#F5FAFF" stroke-width="2" stroke-miterlimit="10"/>
<path d="M1439.93 173.36C1439.93 173.36 1126.88 246.95 1046.5 550.968C970.069 840.421 652.782 902.666 652.782 902.666" stroke="#F5FAFF" stroke-width="2" stroke-miterlimit="10"/>
<path d="M1439.93 118.168C1439.93 118.168 1101.63 196.817 1014.89 524.445C932.288 836.281 589.46 902.665 589.46 902.665" stroke="#F5FAFF" stroke-width="2" stroke-miterlimit="10"/>
<path d="M1439.93 62.8225C1439.93 62.8225 1076.38 146.684 983.177 497.922C894.506 832.142 526.234 902.665 526.234 902.665" stroke="#F5FAFF" stroke-width="2" stroke-miterlimit="10"/>
<path d="M1439.93 7.63028C1439.93 7.63028 1051.22 96.5512 951.564 471.399C856.725 828.156 462.911 902.665 462.911 902.665" stroke="#F5FAFF" stroke-width="2" stroke-miterlimit="10"/>
<path d="M1439.93 -47.5621C1439.93 -47.5621 1025.97 46.4182 919.854 445.029C818.943 824.017 399.589 902.666 399.589 902.666" stroke="#F5FAFF" stroke-width="2" stroke-miterlimit="10"/>
<path d="M1439.93 -102.908C1439.93 -102.908 1000.72 -3.71485 888.145 418.353C781.162 819.877 336.266 902.666 336.266 902.666" stroke="#F5FAFF" stroke-width="2" stroke-miterlimit="10"/>
<path d="M1439.93 -158.1C1439.93 -158.1 975.563 -53.8478 856.532 391.983C743.38 815.891 272.944 902.666 272.944 902.666" stroke="#F5FAFF" stroke-width="2" stroke-miterlimit="10"/>
<path d="M1439.93 -213.292C1439.93 -213.292 950.311 -103.981 824.823 365.46C705.599 811.751 209.718 902.665 209.718 902.665" stroke="#F5FAFF" stroke-width="2" stroke-miterlimit="10"/>
<path d="M1439.93 -268.638C1439.93 -268.638 925.059 -154.267 793.209 338.937C667.721 807.612 146.395 902.665 146.395 902.665" stroke="#F5FAFF" stroke-width="2" stroke-miterlimit="10"/>
<path d="M1439.93 -323.83C1439.93 -323.83 899.903 -204.247 761.5 312.414C629.94 803.626 83.0728 902.666 83.0728 902.666" stroke="#F5FAFF" stroke-width="2" stroke-miterlimit="10"/>
<path d="M0.000333236 49.2718C0.000333236 49.2718 209.875 -4.76282 263.859 -213.33C315.354 -412.26 528.258 -459.239 528.258 -459.239" stroke="#F5FAFF" stroke-width="2" stroke-miterlimit="10"/>
<path d="M0.000160694 111.395C0.000160694 111.395 238.219 51.6811 299.451 -183.387C357.761 -407.613 599.334 -459.239 599.334 -459.239" stroke="#F5FAFF" stroke-width="2" stroke-miterlimit="10"/>
<path d="M0.000224474 173.345C0.000224474 173.345 266.455 107.953 334.935 -153.788C400.169 -402.967 670.41 -459.239 670.41 -459.239" stroke="#F5FAFF" stroke-width="2" stroke-miterlimit="10"/>
<path d="M0.000250147 235.295C0.000250147 235.295 294.799 164.052 370.527 -124.018C442.577 -398.493 741.378 -459.239 741.378 -459.239" stroke="#F5FAFF" stroke-width="2" stroke-miterlimit="10"/>
<path d="M0.000265718 297.418C0.000265718 297.418 323.143 220.496 406.011 -94.247C484.985 -393.847 812.454 -459.239 812.454 -459.239" stroke="#F5FAFF" stroke-width="2" stroke-miterlimit="10"/>
<path d="M0.000215259 359.369C0.000215259 359.369 351.379 276.768 441.603 -64.4761C527.392 -389.372 883.531 -459.239 883.531 -459.239" stroke="#F5FAFF" stroke-width="2" stroke-miterlimit="10"/>
<path d="M0.00018168 421.319C0.00018168 421.319 379.722 333.04 477.087 -34.7055C569.8 -384.726 954.607 -459.239 954.607 -459.239" stroke="#F5FAFF" stroke-width="2" stroke-miterlimit="10"/>
<path d="M0.000191689 483.442C0.000191689 483.442 408.066 389.312 512.679 -4.93485C612.208 -380.08 1025.57 -459.239 1025.57 -459.239" stroke="#F5FAFF" stroke-width="2" stroke-miterlimit="10"/>
<path d="M0.00025424 545.392C0.00025424 545.392 436.302 445.583 548.163 24.8357C654.615 -375.606 1096.65 -459.239 1096.65 -459.239" stroke="#F5FAFF" stroke-width="2" stroke-miterlimit="10"/>
<path d="M0.000325852 607.343C0.000325852 607.343 464.646 501.855 583.756 54.4344C697.023 -370.959 1167.73 -459.239 1167.73 -459.239" stroke="#F5FAFF" stroke-width="2" stroke-miterlimit="10"/>
<path d="M0.000209363 669.466C0.000209363 669.466 492.99 558.127 619.348 84.3773C739.431 -366.313 1238.8 -459.239 1238.8 -459.239" stroke="#F5FAFF" stroke-width="2" stroke-miterlimit="10"/>
<path d="M8.05953e-05 731.416C8.05953e-05 731.416 521.226 614.398 654.832 113.976C781.839 -361.839 1309.88 -459.239 1309.88 -459.239" stroke="#F5FAFF" stroke-width="2" stroke-miterlimit="10"/>
<path d="M0.000364833 793.367C0.000364833 793.367 549.57 670.67 690.424 143.746C824.246 -357.193 1380.85 -459.239 1380.85 -459.239" stroke="#F5FAFF" stroke-width="2" stroke-miterlimit="10"/>
<path d="M9.83427e-05 855.489C9.83427e-05 855.489 577.914 727.114 725.908 173.517C866.762 -352.546 1451.92 -459.239 1451.92 -459.239" stroke="#F5FAFF" stroke-width="2" stroke-miterlimit="10"/>
<path d="M9.60925e-05 917.44C9.60925e-05 917.44 606.149 783.214 761.5 203.288C909.17 -348.072 1523 -459.239 1523 -459.239" stroke="#F5FAFF" stroke-width="2" stroke-miterlimit="10"/>
</svg>
