<svg width="230" height="108" viewBox="0 0 230 108" fill="none" xmlns="http://www.w3.org/2000/svg">
<path d="M24.9261 19.0756C20.7852 21.0558 18.0795 23.319 16.809 25.865C15.9621 27.6567 15.5385 29.8962 15.5385 32.5837V43.2629C15.5385 44.6774 16.2914 45.6675 17.7972 46.2333C18.3619 46.4691 18.95 46.5869 19.5618 46.5869H24.9261V19.0756ZM33.2549 60.378C30.0551 60.378 27.6553 59.3171 26.0554 57.1954C25.3025 56.111 24.9261 54.9794 24.9261 53.8007V50.406C23.3262 52.0091 21.3969 52.8341 19.1383 52.8813H15.6797V55.2151C15.6797 58.987 13.6563 61.981 9.60955 64.197C7.82144 65.14 5.89216 65.8001 3.82172 66.1773L0.716064 62.0046C4.00995 60.4015 6.12744 58.5391 7.06855 56.4174C7.68026 55.0029 7.98613 53.2113 7.98613 51.0425V29.7548C7.98613 24.5213 10.4801 20.3722 15.4679 17.3075C17.5855 16.0816 19.8911 15.1858 22.3851 14.62L24.9261 18.0854V17.0953L33.2549 19.1463V60.378ZM47.3715 74.0983C44.2659 74.0983 41.8896 73.0374 40.2426 70.9157C39.3956 69.8313 38.9722 68.6762 38.9722 67.4502V18.1562L47.3715 20.3486V64.5507C47.3715 66.0593 48.0538 67.0731 49.4184 67.5918C49.7949 67.7332 50.1948 67.8039 50.6183 67.8039H55.8415C55.8415 69.8785 54.971 71.5994 53.2299 72.9667C52.2417 73.7211 51.2301 74.0983 50.1948 74.0983H47.3715ZM90.0038 15.0443C93.1568 15.0443 95.5323 16.1052 97.133 18.2269C97.2738 18.4154 97.3918 18.5805 97.4852 18.7219C98.3797 16.6946 99.7674 15.4922 101.65 15.1151C101.979 15.068 102.285 15.0443 102.567 15.0443H105.391C108.591 15.0443 110.991 16.1052 112.59 18.2269C113.343 19.3113 113.719 20.4429 113.719 21.6216V53.3057C113.719 57.1247 114.849 59.9536 117.107 61.7924C118.049 62.4997 119.367 63.2776 121.061 64.1263L117.954 68.4404C113.296 67.686 109.814 65.8944 107.508 63.0655C106.097 61.3681 105.391 59.5057 105.391 57.4783V57.4076V23.8848C105.391 22.8003 104.755 22.0224 103.485 21.5508C103.061 21.4094 102.615 21.3387 102.144 21.3387H98.3322V60.378L90.0038 53.8007V23.8848C90.0038 22.8474 89.3681 22.0931 88.0976 21.6216C87.6274 21.433 87.1572 21.3387 86.6862 21.3387H82.8748V50.2646C82.8748 53.7064 81.2279 56.4882 77.934 58.6099C76.5223 59.4586 75.0166 60.0479 73.4167 60.378L70.3111 56.2052C72.6638 54.3193 74.0284 51.844 74.4048 48.7793C74.4989 47.9307 74.546 46.9877 74.546 45.9504V19.712C72.6638 20.4664 71.7227 22.0931 71.7227 24.5919L63.3939 21.763C64.6643 18.3212 67.2995 16.1995 71.2992 15.398C72.3344 15.1622 73.4167 15.0443 74.546 15.0443L82.5925 17.7318C83.7218 15.9873 85.251 15.0915 87.1802 15.0443H90.0038ZM123.743 17.8732L129.812 23.2482L124.025 29.1182L117.884 23.7433L123.743 17.8732ZM128.189 60.378C125.037 60.378 122.637 59.3406 120.989 57.2661C120.19 56.1817 119.79 55.0266 119.79 53.8007V33.5738L128.189 35.7663V51.6083C128.518 52.9284 129.319 53.7536 130.589 54.0836C130.872 54.1307 131.131 54.1543 131.366 54.1543H136.659C136.659 56.276 135.788 57.9969 134.048 59.3171C133.06 60.0244 132.048 60.378 131.013 60.378H128.189ZM142.941 54.0836H164.469C164.469 56.2524 163.599 57.9969 161.857 59.3171C160.869 60.0244 159.858 60.378 158.822 60.378H141.035C138.965 60.378 137.153 59.6 135.601 58.044C134.706 57.1011 134.236 56.1581 134.188 55.2151C134.236 54.6494 134.353 54.1779 134.541 53.8007C136.141 51.0189 140.729 46.6341 148.305 40.6462C145.34 39.0902 140.659 38.3123 134.26 38.3123L137.083 30.0377C142.211 30.0377 146.823 31.4993 150.917 34.4225C154.916 37.3929 156.94 40.8112 156.987 44.6774C156.987 44.6774 154.94 45.8089 150.846 48.0721C146.799 50.4767 144.164 52.4805 142.941 54.0836ZM181.056 17.8732L187.126 23.2482L181.338 29.1182L175.197 23.7433L181.056 17.8732ZM167.927 17.8732L173.998 23.2482L168.21 29.1182L162.069 23.7433L167.927 17.8732ZM170.327 47.9307V50.8303C170.327 52.2919 170.986 53.3057 172.304 53.8714C172.774 54.06 173.221 54.1543 173.645 54.1543H178.021V53.8007V33.5738L186.42 35.7663V50.8303C186.42 52.3391 187.079 53.3763 188.396 53.9422C188.82 54.0836 189.22 54.1543 189.596 54.1543H194.891C194.891 56.276 194.02 57.9969 192.278 59.3171C191.29 60.0244 190.279 60.378 189.243 60.378H186.42C183.221 60.378 180.821 59.2935 179.221 57.1247C179.173 57.0304 179.127 56.9596 179.08 56.9125C178.185 58.7984 176.821 59.93 174.986 60.3072C174.657 60.3544 174.35 60.378 174.068 60.378H168.563C166.21 60.378 164.374 59.3643 163.057 57.3369C162.399 56.2524 162.069 55.0737 162.069 53.8007V45.1017C162.069 40.8112 164.257 37.4165 168.633 34.9176C170.468 33.9275 172.445 33.2202 174.562 32.7959L177.668 36.9686C174.327 38.6188 172.186 40.5047 171.245 42.6264C170.633 44.0409 170.327 45.8089 170.327 47.9307ZM200.89 39.8682V53.8007C200.89 56.1581 199.666 57.9734 197.219 59.2464C195.761 60.0008 194.184 60.378 192.49 60.378H189.243L192.49 54.225V35.837L200.89 33.6446V35.4834C202.066 34.3046 203.36 33.6917 204.772 33.6446H207.524C210.677 33.6446 213.077 34.6819 214.724 36.7564C215.524 37.8408 215.924 38.996 215.924 40.2218V53.3057C215.924 56.9833 216.983 59.7414 219.1 61.5802C220.135 62.4289 221.524 63.2776 223.265 64.1263L220.159 68.4404C215.547 67.7332 212.042 65.9651 209.642 63.1361C208.231 61.3916 207.524 59.5057 207.524 57.4783V43.1215C207.524 41.5655 206.842 40.5519 205.477 40.0804C205.101 39.9389 204.725 39.8682 204.349 39.8682H200.89Z" fill="white"/>
<path d="M218.448 77.9318V87.75H217.596V77.9318H218.448Z" fill="white"/>
<path d="M212.739 87.9034C212.053 87.9034 211.46 87.7436 210.959 87.424C210.458 87.1012 210.071 86.6554 209.796 86.0865C209.525 85.5144 209.39 84.856 209.39 84.1113C209.39 83.3699 209.525 82.7115 209.796 82.1362C210.071 81.5577 210.449 81.1055 210.93 80.7795C211.415 80.4503 211.975 80.2857 212.61 80.2857C213.008 80.2857 213.393 80.3592 213.763 80.5062C214.133 80.65 214.464 80.8722 214.758 81.1726C215.055 81.4698 215.289 81.8453 215.461 82.2992C215.633 82.7498 215.72 83.2836 215.72 83.9004V84.3223H209.978V83.5696H214.849C214.849 83.0966 214.753 82.6715 214.562 82.2944C214.374 81.9141 214.11 81.6136 213.772 81.3931C213.437 81.1726 213.05 81.0623 212.61 81.0623C212.144 81.0623 211.734 81.187 211.38 81.4363C211.026 81.6855 210.748 82.0147 210.548 82.4238C210.35 82.8329 210.249 83.2804 210.246 83.7662V84.2168C210.246 84.8017 210.347 85.313 210.548 85.7509C210.752 86.1855 211.04 86.5227 211.414 86.7624C211.787 87.0021 212.228 87.122 212.739 87.122C213.086 87.122 213.391 87.0677 213.653 86.959C213.917 86.8503 214.139 86.7049 214.318 86.5227C214.5 86.3374 214.637 86.1344 214.729 85.9139L215.538 86.1776C215.426 86.4876 215.243 86.7736 214.988 87.0357C214.736 87.2978 214.42 87.5087 214.04 87.6685C213.664 87.8251 213.23 87.9034 212.739 87.9034Z" fill="white"/>
<path d="M208.364 80.3864L205.68 87.75H204.771L202.087 80.3864H203.011L205.192 86.6234H205.259L207.441 80.3864H208.364Z" fill="white"/>
<path d="M197.492 87.9178C197.048 87.9178 196.643 87.8315 196.276 87.6589C195.91 87.4831 195.618 87.2306 195.401 86.9015C195.184 86.5691 195.075 86.1664 195.075 85.6934C195.075 85.329 195.144 85.0222 195.281 84.7729C195.418 84.5236 195.613 84.3191 195.865 84.1593C196.117 83.9995 196.415 83.8732 196.76 83.7805C197.104 83.6879 197.484 83.6159 197.898 83.5648C198.31 83.5137 198.657 83.4689 198.941 83.4306C199.228 83.3922 199.447 83.3315 199.597 83.2484C199.747 83.1653 199.822 83.0311 199.822 82.8457V82.6731C199.822 82.1713 199.672 81.7766 199.372 81.489C199.075 81.1982 198.648 81.0527 198.09 81.0527C197.56 81.0527 197.128 81.1694 196.793 81.4027C196.461 81.636 196.229 81.9109 196.095 82.2273L195.286 81.9348C195.452 81.5321 195.681 81.2109 195.975 80.9712C196.268 80.7283 196.597 80.5542 196.961 80.4487C197.324 80.34 197.693 80.2857 198.066 80.2857C198.346 80.2857 198.638 80.3224 198.941 80.396C199.248 80.4695 199.531 80.5973 199.793 80.7795C200.055 80.9585 200.267 81.2093 200.429 81.5321C200.592 81.8517 200.673 82.2576 200.673 82.7498V87.75H199.822V86.5851H199.769C199.667 86.8024 199.515 87.0133 199.315 87.2179C199.114 87.4224 198.862 87.5902 198.559 87.7212C198.256 87.8523 197.9 87.9178 197.492 87.9178ZM197.606 87.1364C198.059 87.1364 198.452 87.0357 198.783 86.8343C199.115 86.633 199.37 86.3661 199.549 86.0337C199.731 85.6982 199.822 85.329 199.822 84.9263V83.862C199.758 83.9228 199.651 83.9771 199.501 84.025C199.354 84.073 199.184 84.1161 198.989 84.1545C198.798 84.1896 198.606 84.22 198.415 84.2456C198.224 84.2711 198.051 84.2935 197.898 84.3127C197.484 84.3638 197.13 84.4437 196.836 84.5524C196.543 84.661 196.318 84.8113 196.162 85.003C196.005 85.1916 195.927 85.4345 195.927 85.7317C195.927 86.1792 196.087 86.5259 196.406 86.772C196.725 87.0149 197.125 87.1364 197.606 87.1364Z" fill="white"/>
<path d="M190.637 87.75V80.3864H191.464V81.5178H191.527C191.673 81.147 191.929 80.8482 192.292 80.6213C192.659 80.3912 193.074 80.2761 193.536 80.2761C193.606 80.2761 193.684 80.2777 193.771 80.2809C193.857 80.2841 193.928 80.2873 193.986 80.2905V81.1582C193.948 81.1518 193.881 81.1422 193.785 81.1294C193.689 81.1167 193.586 81.1103 193.474 81.1103C193.091 81.1103 192.75 81.1918 192.45 81.3548C192.153 81.5146 191.919 81.7367 191.747 82.0211C191.574 82.3056 191.488 82.63 191.488 82.9943V87.75H190.637Z" fill="white"/>
<path d="M182.458 78.7372V77.9318H189.563V78.7372H186.457V87.75H185.563V78.7372H182.458Z" fill="white"/>
<path d="M173.467 87.9034C172.865 87.9034 172.337 87.7436 171.884 87.424C171.431 87.1044 171.077 86.6586 170.822 86.0865C170.57 85.5144 170.444 84.848 170.444 84.0874C170.444 83.3299 170.57 82.6667 170.822 82.0978C171.077 81.5257 171.432 81.0815 171.889 80.7651C172.345 80.4455 172.876 80.2857 173.482 80.2857C173.928 80.2857 174.3 80.3656 174.597 80.5254C174.893 80.682 175.131 80.877 175.309 81.1103C175.488 81.3436 175.627 81.5705 175.726 81.791H175.802V77.9318H176.659V87.75H175.826V86.3837H175.726C175.627 86.6074 175.486 86.8375 175.305 87.074C175.123 87.3073 174.882 87.5039 174.582 87.6637C174.286 87.8235 173.914 87.9034 173.467 87.9034ZM173.568 87.122C174.043 87.122 174.448 86.9925 174.783 86.7337C175.118 86.4716 175.373 86.112 175.549 85.655C175.727 85.1948 175.817 84.6674 175.817 84.073C175.817 83.4849 175.729 82.9656 175.553 82.5149C175.378 82.0611 175.123 81.7063 174.788 81.4506C174.453 81.1918 174.046 81.0623 173.568 81.0623C173.077 81.0623 172.662 81.1966 172.324 81.465C171.989 81.7303 171.734 82.0898 171.558 82.5437C171.386 82.9975 171.3 83.5073 171.3 84.073C171.3 84.6451 171.388 85.1612 171.563 85.6214C171.739 86.0817 171.994 86.4476 172.329 86.7193C172.667 86.9877 173.08 87.122 173.568 87.122Z" fill="white"/>
<path d="M163.871 83.1477V87.75H163.019V80.3864H163.847V81.5417H163.923C164.096 81.1646 164.363 80.8626 164.727 80.6357C165.094 80.4055 165.547 80.2905 166.086 80.2905C166.58 80.2905 167.014 80.3944 167.387 80.6021C167.764 80.8066 168.056 81.1087 168.263 81.5082C168.473 81.9077 168.579 82.3983 168.579 82.9799V87.75H167.727V83.0327C167.727 82.4286 167.558 81.9508 167.22 81.5993C166.885 81.2477 166.435 81.0719 165.871 81.0719C165.485 81.0719 165.142 81.155 164.842 81.3212C164.542 81.4874 164.304 81.7271 164.129 82.0403C163.957 82.3503 163.871 82.7195 163.871 83.1477Z" fill="white"/>
<path d="M157.572 87.9178C157.129 87.9178 156.723 87.8315 156.357 87.6589C155.99 87.4831 155.698 87.2306 155.481 86.9015C155.264 86.5691 155.156 86.1664 155.156 85.6934C155.156 85.329 155.224 85.0222 155.361 84.7729C155.499 84.5236 155.693 84.3191 155.945 84.1593C156.197 83.9995 156.495 83.8732 156.84 83.7805C157.184 83.6879 157.564 83.6159 157.979 83.5648C158.39 83.5137 158.738 83.4689 159.022 83.4306C159.309 83.3922 159.527 83.3315 159.677 83.2484C159.827 83.1653 159.902 83.0311 159.902 82.8457V82.6731C159.902 82.1713 159.752 81.7766 159.452 81.489C159.156 81.1982 158.728 81.0527 158.17 81.0527C157.641 81.0527 157.208 81.1694 156.873 81.4027C156.542 81.636 156.309 81.9109 156.175 82.2273L155.366 81.9348C155.532 81.5321 155.762 81.2109 156.055 80.9712C156.349 80.7283 156.677 80.5542 157.041 80.4487C157.404 80.34 157.773 80.2857 158.146 80.2857C158.427 80.2857 158.719 80.3224 159.022 80.396C159.328 80.4695 159.612 80.5973 159.873 80.7795C160.135 80.9585 160.347 81.2093 160.51 81.5321C160.672 81.8517 160.754 82.2576 160.754 82.7498V87.75H159.902V86.5851H159.849C159.747 86.8024 159.596 87.0133 159.395 87.2179C159.194 87.4224 158.942 87.5902 158.639 87.7212C158.336 87.8523 157.98 87.9178 157.572 87.9178ZM157.687 87.1364C158.14 87.1364 158.532 87.0357 158.864 86.8343C159.196 86.633 159.451 86.3661 159.629 86.0337C159.811 85.6982 159.902 85.329 159.902 84.9263V83.862C159.838 83.9228 159.731 83.9771 159.581 84.025C159.435 84.073 159.264 84.1161 159.07 84.1545C158.878 84.1896 158.687 84.22 158.495 84.2456C158.304 84.2711 158.132 84.2935 157.979 84.3127C157.564 84.3638 157.21 84.4437 156.916 84.5524C156.623 84.661 156.398 84.8113 156.242 85.003C156.086 85.1916 156.007 85.4345 156.007 85.7317C156.007 86.1792 156.167 86.5259 156.486 86.772C156.805 87.0149 157.205 87.1364 157.687 87.1364Z" fill="white"/>
<path d="M146.927 87.75V80.3864H147.755V81.5178H147.817C147.964 81.147 148.219 80.8482 148.583 80.6213C148.95 80.3912 149.364 80.2761 149.827 80.2761C149.897 80.2761 149.975 80.2777 150.061 80.2809C150.147 80.2841 150.219 80.2873 150.277 80.2905V81.1582C150.238 81.1518 150.171 81.1422 150.076 81.1294C149.98 81.1167 149.876 81.1103 149.765 81.1103C149.382 81.1103 149.041 81.1918 148.741 81.3548C148.444 81.5146 148.21 81.7367 148.038 82.0211C147.865 82.3056 147.779 82.63 147.779 82.9943V87.75H146.927Z" fill="white"/>
<path d="M143.821 84.9359V80.3864H144.673V87.75H143.821V86.5275H143.754C143.582 86.9047 143.309 87.2195 142.936 87.472C142.563 87.7212 142.107 87.8459 141.568 87.8459C141.099 87.8459 140.682 87.7436 140.319 87.5391C139.955 87.3313 139.67 87.0277 139.462 86.6282C139.255 86.2287 139.151 85.7381 139.151 85.1564V80.3864H140.003V85.1037C140.003 85.679 140.172 86.1424 140.51 86.494C140.848 86.8423 141.282 87.0165 141.812 87.0165C142.143 87.0165 142.462 86.9366 142.768 86.7768C143.075 86.617 143.327 86.3837 143.524 86.0769C143.722 85.7669 143.821 85.3865 143.821 84.9359Z" fill="white"/>
<path d="M134.048 87.9034C133.413 87.9034 132.851 87.742 132.363 87.4192C131.879 87.0964 131.499 86.6506 131.225 86.0817C130.95 85.5096 130.813 84.8496 130.813 84.1017C130.813 83.3475 130.95 82.6843 131.225 82.1122C131.499 81.5369 131.879 81.0895 132.363 80.7699C132.851 80.4471 133.413 80.2857 134.048 80.2857C134.682 80.2857 135.242 80.4471 135.727 80.7699C136.212 81.0927 136.591 81.5401 136.866 82.1122C137.143 82.6843 137.282 83.3475 137.282 84.1017C137.282 84.8496 137.145 85.5096 136.87 86.0817C136.596 86.6506 136.215 87.0964 135.727 87.4192C135.242 87.742 134.682 87.9034 134.048 87.9034ZM134.048 87.122C134.558 87.122 134.99 86.9846 135.344 86.7097C135.698 86.4348 135.966 86.0689 136.148 85.6119C136.333 85.1548 136.425 84.6515 136.425 84.1017C136.425 83.552 136.333 83.0471 136.148 82.5868C135.966 82.1266 135.698 81.7575 135.344 81.4794C134.99 81.2014 134.558 81.0623 134.048 81.0623C133.54 81.0623 133.108 81.2014 132.751 81.4794C132.397 81.7575 132.127 82.1266 131.942 82.5868C131.761 83.0471 131.67 83.552 131.67 84.1017C131.67 84.6515 131.761 85.1548 131.942 85.6119C132.127 86.0689 132.397 86.4348 132.751 86.7097C133.105 86.9846 133.537 87.122 134.048 87.122Z" fill="white"/>
<path d="M123.315 78.7372V77.9318H130.42V78.7372H127.315V87.75H126.42V78.7372H123.315Z" fill="white"/>
</svg>
