<svg width="231" height="108" viewBox="0 0 231 108" fill="none" xmlns="http://www.w3.org/2000/svg">
<path d="M24.9756 19.0758C20.8265 21.056 18.1154 23.3191 16.8424 25.8651C15.9938 27.6568 15.5694 29.8963 15.5694 32.5838V43.2631C15.5694 44.6775 16.3238 45.6677 17.8326 46.2334C18.3984 46.4692 18.9877 46.5871 19.6006 46.5871H24.9756V19.0758ZM33.321 60.3781C30.1148 60.3781 27.7103 59.3172 26.1072 57.1956C25.3528 56.1112 24.9756 54.9795 24.9756 53.8008V50.4061C23.3726 52.0092 21.4395 52.8343 19.1763 52.8815H15.7109V55.2153C15.7109 58.9872 13.6834 61.9812 9.62868 64.1971C7.83701 65.1401 5.9039 65.8002 3.82935 66.1775L0.717529 62.0047C4.01795 60.4017 6.13965 58.5393 7.08262 56.4176C7.69555 55.0031 8.00203 53.2115 8.00203 51.0427V29.7549C8.00203 24.5214 10.5009 20.3724 15.4987 17.3076C17.6204 16.0818 19.9307 15.186 22.4296 14.6201L24.9756 18.0856V17.0954L33.321 19.1464V60.3781ZM47.4656 74.0984C44.3538 74.0984 41.9728 73.0376 40.3225 70.9158C39.4738 69.8314 39.0496 68.6763 39.0496 67.4504V18.1563L47.4656 20.3487V64.5508C47.4656 66.0595 48.1493 67.0733 49.5166 67.5919C49.8938 67.7333 50.2945 67.8041 50.7189 67.8041H55.9524C55.9524 69.8786 55.0802 71.5996 53.3356 72.9668C52.3455 73.7212 51.3318 74.0984 50.2945 74.0984H47.4656ZM90.1826 15.0445C93.3418 15.0445 95.722 16.1053 97.3259 18.2271C97.467 18.4156 97.5852 18.5807 97.6788 18.7221C98.5751 16.6947 99.9655 15.4924 101.852 15.1152C102.182 15.0681 102.489 15.0445 102.771 15.0445H105.6C108.806 15.0445 111.211 16.1053 112.814 18.2271C113.568 19.3115 113.945 20.443 113.945 21.6217V53.3058C113.945 57.1248 115.077 59.9538 117.34 61.7926C118.283 62.4998 119.604 63.2778 121.301 64.1265L118.189 68.4405C113.521 67.6861 110.032 65.8945 107.722 63.0656C106.308 61.3682 105.6 59.5059 105.6 57.4784V57.4078V23.8849C105.6 22.8005 104.963 22.0225 103.69 21.551C103.266 21.4096 102.819 21.3388 102.347 21.3388H98.5275V60.3781L90.1826 53.8008V23.8849C90.1826 22.8476 89.5456 22.0932 88.2726 21.6217C87.8015 21.4331 87.3303 21.3388 86.8584 21.3388H83.0394V50.2647C83.0394 53.7065 81.3892 56.4883 78.0888 58.6101C76.6743 59.4587 75.1655 60.0481 73.5625 60.3781L70.4507 56.2054C72.8081 54.3195 74.1754 51.8441 74.5526 48.7795C74.6469 47.9308 74.6941 46.9878 74.6941 45.9506V19.7122C72.8081 20.4666 71.8652 22.0932 71.8652 24.5921L63.5198 21.7632C64.7928 18.3214 67.4332 16.1996 71.4408 15.3981C72.4781 15.1623 73.5625 15.0445 74.6941 15.0445L82.7565 17.732C83.8881 15.9875 85.4204 15.0917 87.3533 15.0445H90.1826ZM123.988 17.8734L130.07 23.2484L124.271 29.1184L118.118 23.7435L123.988 17.8734ZM128.443 60.3781C125.285 60.3781 122.88 59.3408 121.23 57.2663C120.429 56.1818 120.028 55.0267 120.028 53.8008V33.5739L128.443 35.7664V51.6084C128.773 52.9286 129.575 53.7537 130.848 54.0837C131.132 54.1309 131.391 54.1545 131.627 54.1545H136.93C136.93 56.2761 136.058 57.9971 134.314 59.3172C133.324 60.0245 132.31 60.3781 131.273 60.3781H128.443ZM143.225 54.0837H164.795C164.795 56.2526 163.924 57.9971 162.179 59.3172C161.189 60.0245 160.175 60.3781 159.138 60.3781H141.315C139.241 60.3781 137.425 59.6002 135.87 58.0442C134.974 57.1013 134.503 56.1583 134.455 55.2153C134.503 54.6495 134.62 54.1781 134.809 53.8008C136.412 51.0191 141.009 46.6342 148.6 40.6463C145.629 39.0904 140.938 38.3124 134.526 38.3124L137.355 30.0378C142.494 30.0378 147.115 31.4994 151.217 34.4226C155.224 37.3931 157.251 40.8113 157.299 44.6775C157.299 44.6775 155.248 45.8091 151.146 48.0722C147.091 50.4769 144.45 52.4807 143.225 54.0837ZM181.415 17.8734L187.497 23.2484L181.699 29.1184L175.545 23.7435L181.415 17.8734ZM168.261 17.8734L174.343 23.2484L168.544 29.1184L162.391 23.7435L168.261 17.8734ZM170.666 47.9308V50.8305C170.666 52.2921 171.325 53.3058 172.646 53.8716C173.117 54.0602 173.565 54.1545 173.99 54.1545H178.374V53.8008V33.5739L186.791 35.7664V50.8305C186.791 52.3393 187.451 53.3765 188.77 53.9423C189.195 54.0837 189.596 54.1545 189.973 54.1545H195.278C195.278 56.2761 194.405 57.9971 192.66 59.3172C191.67 60.0245 190.657 60.3781 189.619 60.3781H186.791C183.585 60.3781 181.18 59.2937 179.577 57.1248C179.529 57.0305 179.482 56.9598 179.436 56.9127C178.539 58.7986 177.172 59.9302 175.333 60.3074C175.003 60.3545 174.696 60.3781 174.414 60.3781H168.898C166.54 60.3781 164.701 59.3644 163.381 57.337C162.721 56.2526 162.391 55.0739 162.391 53.8008V45.1019C162.391 40.8113 164.584 37.4166 168.968 34.9177C170.807 33.9276 172.787 33.2204 174.909 32.796L178.021 36.9687C174.673 38.6189 172.528 40.5048 171.585 42.6266C170.972 44.041 170.666 45.8091 170.666 47.9308ZM201.289 39.8684V53.8008C201.289 56.1583 200.063 57.9735 197.611 59.2466C196.149 60.001 194.57 60.3781 192.873 60.3781H189.619L192.873 54.2252V35.8371L201.289 33.6447V35.4835C202.468 34.3048 203.764 33.6919 205.179 33.6447H207.937C211.096 33.6447 213.5 34.682 215.15 36.7565C215.952 37.841 216.353 38.9961 216.353 40.222V53.3058C216.353 56.9834 217.413 59.7416 219.535 61.5804C220.573 62.4291 221.964 63.2778 223.708 64.1265L220.596 68.4405C215.975 67.7333 212.463 65.9653 210.058 63.1363C208.644 61.3918 207.937 59.5059 207.937 57.4784V43.1217C207.937 41.5657 207.253 40.552 205.885 40.0806C205.509 39.9391 205.131 39.8684 204.754 39.8684H201.289Z" fill="white"/>
<path d="M9.9715 96.2202C9.13114 96.2202 8.32747 96.0943 7.56062 95.8426C6.79376 95.5798 6.18974 95.2431 5.74854 94.834L6.33155 93.6044C6.75174 93.9726 7.28749 94.277 7.93879 94.5185C8.59012 94.7601 9.26763 94.8808 9.9715 94.8808C10.6123 94.8808 11.1323 94.8077 11.5315 94.6606C11.9306 94.5134 12.2248 94.3136 12.4138 94.0619C12.603 93.7991 12.6975 93.5049 12.6975 93.1792C12.6975 92.8007 12.5714 92.4963 12.3193 92.265C12.0777 92.0345 11.7573 91.85 11.3581 91.7139C10.9694 91.5668 10.5387 91.441 10.0661 91.3355C9.59333 91.2309 9.11532 91.1102 8.63213 90.9732C8.15939 90.8261 7.72345 90.6424 7.32426 90.4213C6.93558 90.2011 6.62044 89.9069 6.37882 89.5395C6.13721 89.1611 6.01641 88.678 6.01641 88.0896C6.01641 87.5223 6.16348 87.0028 6.45761 86.5299C6.76225 86.0461 7.22446 85.6634 7.84425 85.3794C8.47454 85.0851 9.2729 84.9382 10.2394 84.9382C10.8801 84.9382 11.5157 85.0222 12.146 85.1906C12.7763 85.3581 13.3226 85.5996 13.7847 85.9151L13.2647 87.1754C12.792 86.8607 12.2931 86.6345 11.7678 86.4985C11.2426 86.3514 10.7331 86.2774 10.2394 86.2774C9.6196 86.2774 9.11005 86.3565 8.71087 86.5138C8.31172 86.6711 8.01758 86.8812 7.8285 87.1439C7.64991 87.4067 7.56062 87.7009 7.56062 88.0266C7.56062 88.4153 7.68143 88.7248 7.92303 88.9561C8.17515 89.1874 8.49555 89.3711 8.88427 89.508C9.28344 89.6441 9.71935 89.7708 10.1921 89.8856C10.6648 89.991 11.1376 90.1118 11.6102 90.2487C12.0935 90.3848 12.5294 90.5634 12.9181 90.7845C13.3173 91.0047 13.6377 91.2989 13.8793 91.6663C14.1209 92.0345 14.2417 92.5065 14.2417 93.0848C14.2417 93.6418 14.0894 94.1614 13.7847 94.6444C13.4801 95.1172 13.0074 95.5007 12.3666 95.795C11.7363 96.0782 10.938 96.2202 9.9715 96.2202ZM20.0419 96.1887C19.1489 96.1887 18.3611 96.005 17.6783 95.6377C17.006 95.2694 16.4808 94.7652 16.1026 94.1248C15.7349 93.4836 15.551 92.7489 15.551 91.9189C15.551 91.0889 15.7296 90.3533 16.0868 89.713C16.4545 89.0718 16.9534 88.5726 17.5837 88.2154C18.2246 87.8481 18.9441 87.6644 19.7425 87.6644C20.5513 87.6644 21.2657 87.843 21.8855 88.2001C22.5053 88.5573 22.9885 89.0616 23.3352 89.713C23.6923 90.3533 23.8709 91.1042 23.8709 91.9657C23.8709 92.0286 23.8657 92.1026 23.8551 92.1868C23.8551 92.2709 23.8499 92.3492 23.8394 92.4232H16.7328V91.3355H23.0515L22.437 91.7139C22.4475 91.1782 22.3372 90.7003 22.1061 90.2802C21.875 89.8601 21.5545 89.5344 21.1449 89.3031C20.7457 89.0616 20.2783 88.9408 19.7425 88.9408C19.2172 88.9408 18.7498 89.0616 18.3401 89.3031C17.9304 89.5344 17.61 89.8652 17.3789 90.2955C17.1478 90.7156 17.0322 91.1995 17.0322 91.7454V91.9971C17.0322 92.5541 17.1583 93.0533 17.4104 93.4947C17.673 93.925 18.0354 94.2609 18.4976 94.5032C18.9599 94.7447 19.4904 94.8655 20.0891 94.8655C20.5829 94.8655 21.0293 94.7813 21.4285 94.6129C21.8382 94.4454 22.1954 94.1928 22.5 93.8569L23.3352 94.834C22.957 95.2745 22.4843 95.6113 21.917 95.8426C21.3602 96.0731 20.7352 96.1887 20.0419 96.1887ZM27.5824 96.0943L24.4782 87.7426H25.912L28.6696 95.3069H27.992L30.8599 87.7426H32.1362L34.941 95.3069H34.2792L37.0997 87.7426H38.4548L35.3349 96.0943H33.8853L31.2538 89.1925H31.695L29.0321 96.0943H27.5824ZM44.9124 96.0943V94.3298L44.8336 93.999V90.9886C44.8336 90.3482 44.6445 89.8541 44.2663 89.508C43.8987 89.1509 43.342 88.9723 42.5961 88.9723C42.1023 88.9723 41.6192 89.0565 41.1464 89.224C40.6737 89.3813 40.2745 89.5973 39.9489 89.8703L39.3186 88.7359C39.7493 88.3889 40.264 88.1261 40.8628 87.9475C41.472 87.7588 42.1076 87.6644 42.7694 87.6644C43.9145 87.6644 44.7968 87.9424 45.4167 88.4995C46.0364 89.0565 46.3463 89.9069 46.3463 91.0523V96.0943H44.9124ZM42.1706 96.1887C41.5509 96.1887 41.0046 96.0841 40.5318 95.8741C40.0697 95.664 39.7125 95.3749 39.4603 95.0067C39.2083 94.6291 39.0822 94.203 39.0822 93.7311C39.0822 93.2787 39.1873 92.8696 39.3973 92.5014C39.6179 92.134 39.9699 91.8398 40.4531 91.6195C40.9468 91.3984 41.6086 91.2887 42.4385 91.2887H45.0857V92.3755H42.5015C41.7452 92.3755 41.2357 92.5014 40.9731 92.754C40.7104 93.0057 40.5791 93.3101 40.5791 93.6673C40.5791 94.0772 40.742 94.408 41.0676 94.6606C41.3933 94.9021 41.845 95.0228 42.4228 95.0228C42.99 95.0228 43.4837 94.897 43.9039 94.6444C44.3346 94.3927 44.6445 94.0245 44.8336 93.5414L45.133 94.5815C44.9334 95.0755 44.5815 95.4693 44.0773 95.7635C43.573 96.0467 42.9375 96.1887 42.1706 96.1887ZM53.598 96.0943V85.0639H54.8901L59.8379 93.3994H59.1446L64.0293 85.0639H65.3214L65.3371 96.0943H63.8245L63.8087 87.4433H64.1712L59.8221 94.755H59.0973L54.7167 87.4433H55.1107V96.0943H53.598ZM72.0037 96.1887C71.1634 96.1887 70.4175 96.005 69.7662 95.6377C69.1149 95.2694 68.6002 94.7652 68.222 94.1248C67.8438 93.4734 67.6547 92.7378 67.6547 91.9189C67.6547 91.0889 67.8438 90.3533 68.222 89.713C68.6002 89.0718 69.1149 88.5726 69.7662 88.2154C70.4175 87.8481 71.1634 87.6644 72.0037 87.6644C72.8336 87.6644 73.5742 87.8481 74.2255 88.2154C74.8873 88.5726 75.4021 89.0718 75.7698 89.713C76.1479 90.3431 76.337 91.0778 76.337 91.9189C76.337 92.7489 76.1479 93.4836 75.7698 94.1248C75.4021 94.7652 74.8873 95.2694 74.2255 95.6377C73.5742 96.005 72.8336 96.1887 72.0037 96.1887ZM72.0037 94.8655C72.5395 94.8655 73.0175 94.7447 73.4377 94.5032C73.8684 94.2609 74.2045 93.9199 74.4461 93.4785C74.6877 93.027 74.8086 92.5065 74.8086 91.9189C74.8086 91.3202 74.6877 90.8049 74.4461 90.3746C74.2045 89.9332 73.8684 89.5922 73.4377 89.3498C73.0175 89.1083 72.5395 88.9876 72.0037 88.9876C71.468 88.9876 70.9901 89.1083 70.5698 89.3498C70.1496 89.5922 69.8134 89.9332 69.5614 90.3746C69.3092 90.8049 69.1832 91.3202 69.1832 91.9189C69.1832 92.5065 69.3092 93.027 69.5614 93.4785C69.8134 93.9199 70.1496 94.2609 70.5698 94.5032C70.9901 94.7447 71.468 94.8655 72.0037 94.8655ZM82.8568 96.1887C82.1424 96.1887 81.4964 96.0314 80.9186 95.7159C80.3514 95.3902 79.8997 94.9123 79.5635 94.2821C79.2379 93.652 79.0751 92.8637 79.0751 91.9189C79.0751 90.9732 79.2431 90.1849 79.5793 89.5548C79.926 88.9246 80.3829 88.4518 80.9502 88.1372C81.528 87.8217 82.1635 87.6644 82.8568 87.6644C83.6762 87.6644 84.401 87.843 85.0313 88.2001C85.662 88.5573 86.1603 89.0565 86.5285 89.6968C86.8959 90.3269 87.0796 91.0676 87.0796 91.9189C87.0796 92.7693 86.8959 93.5151 86.5285 94.1563C86.1603 94.7966 85.662 95.2958 85.0313 95.653C84.401 96.0101 83.6762 96.1887 82.8568 96.1887ZM78.429 96.0943V84.4024H79.9417V89.9647L79.7841 91.9027L79.8787 93.8408V96.0943H78.429ZM82.7308 94.8655C83.2665 94.8655 83.7445 94.7447 84.1647 94.5032C84.5954 94.2609 84.9315 93.9199 85.173 93.4785C85.4256 93.027 85.5514 92.5065 85.5514 91.9189C85.5514 91.3202 85.4256 90.8049 85.173 90.3746C84.9315 89.9332 84.5954 89.5922 84.1647 89.3498C83.7445 89.1083 83.2665 88.9876 82.7308 88.9876C82.2056 88.9876 81.7275 89.1083 81.2968 89.3498C80.8766 89.5922 80.5405 89.9332 80.2884 90.3746C80.0467 90.8049 79.926 91.3202 79.926 91.9189C79.926 92.5065 80.0467 93.027 80.2884 93.4785C80.5405 93.9199 80.8766 94.2609 81.2968 94.5032C81.7275 94.7447 82.2056 94.8655 82.7308 94.8655ZM89.1699 96.0943V87.7426H90.6827V96.0943H89.1699ZM89.9259 86.1354C89.6325 86.1354 89.385 86.041 89.186 85.8522C88.9964 85.6634 88.902 85.4321 88.902 85.1591C88.902 84.8752 88.9964 84.6388 89.186 84.4497C89.385 84.2606 89.6325 84.166 89.9259 84.166C90.2201 84.166 90.4616 84.2606 90.6512 84.4497C90.8502 84.6283 90.9506 84.8542 90.9506 85.1276C90.9506 85.4108 90.8562 85.6523 90.6665 85.8522C90.4778 86.041 90.2311 86.1354 89.9259 86.1354ZM93.5706 96.0943V84.4024H95.0835V96.0943H93.5706ZM102.424 96.0943V85.0639H103.716L108.664 93.3994H107.97L112.855 85.0639H114.148L114.163 96.0943H112.651L112.635 87.4433H112.997L108.648 94.755H107.924L103.543 87.4433H103.937V96.0943H102.424ZM122.437 96.0943V94.3298L122.358 93.999V90.9886C122.358 90.3482 122.169 89.8541 121.791 89.508C121.424 89.1509 120.867 88.9723 120.121 88.9723C119.627 88.9723 119.144 89.0565 118.671 89.224C118.198 89.3813 117.799 89.5973 117.474 89.8703L116.843 88.7359C117.274 88.3889 117.789 88.1261 118.388 87.9475C118.997 87.7588 119.633 87.6644 120.294 87.6644C121.439 87.6644 122.322 87.9424 122.942 88.4995C123.561 89.0565 123.871 89.9069 123.871 91.0523V96.0943H122.437ZM119.696 96.1887C119.076 96.1887 118.529 96.0841 118.057 95.8741C117.594 95.664 117.237 95.3749 116.985 95.0067C116.733 94.6291 116.607 94.203 116.607 93.7311C116.607 93.2787 116.712 92.8696 116.922 92.5014C117.143 92.134 117.495 91.8398 117.978 91.6195C118.472 91.3984 119.133 91.2887 119.963 91.2887H122.611V92.3755H120.026C119.27 92.3755 118.76 92.5014 118.497 92.754C118.235 93.0057 118.104 93.3101 118.104 93.6673C118.104 94.0772 118.267 94.408 118.593 94.6606C118.918 94.9021 119.37 95.0228 119.947 95.0228C120.515 95.0228 121.009 94.897 121.429 94.6444C121.859 94.3927 122.169 94.0245 122.358 93.5414L122.658 94.5815C122.458 95.0755 122.106 95.4693 121.602 95.7635C121.098 96.0467 120.462 96.1887 119.696 96.1887ZM130.326 99.2459C129.559 99.2459 128.814 99.1353 128.088 98.9151C127.374 98.705 126.791 98.3997 126.34 98.0009L127.064 96.835C127.453 97.1709 127.931 97.4337 128.498 97.6225C129.065 97.8223 129.659 97.9218 130.279 97.9218C131.266 97.9218 131.991 97.6914 132.453 97.2287C132.916 96.767 133.146 96.0629 133.146 95.1172V93.3527L133.304 91.6978L133.225 90.0276V87.7426H134.659V94.9599C134.659 96.4302 134.292 97.5128 133.556 98.2058C132.821 98.8989 131.744 99.2459 130.326 99.2459ZM130.137 95.7474C129.328 95.7474 128.603 95.5798 127.962 95.2431C127.332 94.897 126.828 94.419 126.449 93.8093C126.082 93.2004 125.898 92.4963 125.898 91.6978C125.898 90.8891 126.082 90.1849 126.449 89.5863C126.828 88.9774 127.332 88.5046 127.962 88.1687C128.603 87.8319 129.328 87.6644 130.137 87.6644C130.851 87.6644 131.502 87.8115 132.091 88.1057C132.679 88.3889 133.146 88.8303 133.493 89.4289C133.85 90.0276 134.029 90.7845 134.029 91.6978C134.029 92.6018 133.85 93.3527 133.493 93.9513C133.146 94.55 132.679 95.0016 132.091 95.3069C131.502 95.6002 130.851 95.7474 130.137 95.7474ZM130.31 94.4241C130.867 94.4241 131.36 94.3085 131.792 94.0772C132.222 93.8459 132.559 93.5261 132.8 93.1162C133.052 92.7064 133.178 92.2335 133.178 91.6978C133.178 91.162 133.052 90.6892 132.8 90.2802C132.559 89.8703 132.222 89.5548 131.792 89.3345C131.36 89.1032 130.867 88.9876 130.31 88.9876C129.753 88.9876 129.255 89.1032 128.814 89.3345C128.382 89.5548 128.041 89.8703 127.789 90.2802C127.547 90.6892 127.427 91.162 127.427 91.6978C127.427 92.2335 127.547 92.7064 127.789 93.1162C128.041 93.5261 128.382 93.8459 128.814 94.0772C129.255 94.3085 129.753 94.4241 130.31 94.4241ZM141.268 96.1887C140.375 96.1887 139.588 96.005 138.905 95.6377C138.232 95.2694 137.707 94.7652 137.329 94.1248C136.961 93.4836 136.777 92.7489 136.777 91.9189C136.777 91.0889 136.956 90.3533 137.313 89.713C137.681 89.0718 138.18 88.5726 138.81 88.2154C139.451 87.8481 140.171 87.6644 140.969 87.6644C141.778 87.6644 142.492 87.843 143.112 88.2001C143.732 88.5573 144.215 89.0616 144.562 89.713C144.919 90.3533 145.098 91.1042 145.098 91.9657C145.098 92.0286 145.092 92.1026 145.082 92.1868C145.082 92.2709 145.076 92.3492 145.066 92.4232H137.959V91.3355H144.278L143.663 91.7139C143.674 91.1782 143.564 90.7003 143.332 90.2802C143.102 89.8601 142.781 89.5344 142.371 89.3031C141.973 89.0616 141.505 88.9408 140.969 88.9408C140.443 88.9408 139.977 89.0616 139.567 89.3031C139.157 89.5344 138.836 89.8652 138.606 90.2955C138.374 90.7156 138.259 91.1995 138.259 91.7454V91.9971C138.259 92.5541 138.385 93.0533 138.637 93.4947C138.899 93.925 139.262 94.2609 139.724 94.5032C140.187 94.7447 140.716 94.8655 141.316 94.8655C141.809 94.8655 142.256 94.7813 142.655 94.6129C143.064 94.4454 143.422 94.1928 143.727 93.8569L144.562 94.834C144.184 95.2745 143.711 95.6113 143.143 95.8426C142.586 96.0731 141.961 96.1887 141.268 96.1887ZM147.198 96.0943V84.4024H148.71V96.0943H147.198ZM156.783 96.0943V94.3298L156.704 93.999V90.9886C156.704 90.3482 156.515 89.8541 156.137 89.508C155.769 89.1509 155.212 88.9723 154.466 88.9723C153.973 88.9723 153.489 89.0565 153.017 89.224C152.545 89.3813 152.145 89.5973 151.819 89.8703L151.189 88.7359C151.62 88.3889 152.135 88.1261 152.733 87.9475C153.342 87.7588 153.978 87.6644 154.64 87.6644C155.785 87.6644 156.667 87.9424 157.287 88.4995C157.907 89.0565 158.217 89.9069 158.217 91.0523V96.0943H156.783ZM154.041 96.1887C153.421 96.1887 152.875 96.0841 152.403 95.8741C151.94 95.664 151.583 95.3749 151.331 95.0067C151.079 94.6291 150.953 94.203 150.953 93.7311C150.953 93.2787 151.058 92.8696 151.268 92.5014C151.488 92.134 151.84 91.8398 152.324 91.6195C152.818 91.3984 153.479 91.2887 154.309 91.2887H156.956V92.3755H154.372C153.616 92.3755 153.107 92.5014 152.844 92.754C152.581 93.0057 152.449 93.3101 152.449 93.6673C152.449 94.0772 152.613 94.408 152.938 94.6606C153.264 94.9021 153.716 95.0228 154.293 95.0228C154.86 95.0228 155.354 94.897 155.774 94.6444C156.206 94.3927 156.515 94.0245 156.704 93.5414L157.003 94.5815C156.804 95.0755 156.452 95.4693 155.948 95.7635C155.444 96.0467 154.808 96.1887 154.041 96.1887ZM165.476 87.6644C166.159 87.6644 166.757 87.7953 167.272 88.0581C167.797 88.3209 168.207 88.7197 168.501 89.2555C168.795 89.7912 168.942 90.469 168.942 91.2887V96.0943H167.43V91.4614C167.43 90.6527 167.23 90.0438 166.83 89.6339C166.442 89.224 165.891 89.019 165.176 89.019C164.641 89.019 164.173 89.1245 163.774 89.3345C163.374 89.5446 163.065 89.8541 162.845 90.264C162.634 90.6739 162.529 91.1833 162.529 91.7922V96.0943H161.016V87.7426H162.466V89.9961L162.23 89.3975C162.503 88.8515 162.923 88.4255 163.49 88.121C164.057 87.8166 164.72 87.6644 165.476 87.6644ZM175.397 99.2459C174.63 99.2459 173.884 99.1353 173.16 98.9151C172.446 98.705 171.862 98.3997 171.411 98.0009L172.136 96.835C172.525 97.1709 173.003 97.4337 173.57 97.6225C174.137 97.8223 174.731 97.9218 175.35 97.9218C176.338 97.9218 177.062 97.6914 177.525 97.2287C177.987 96.767 178.218 96.0629 178.218 95.1172V93.3527L178.375 91.6978L178.297 90.0276V87.7426H179.731V94.9599C179.731 96.4302 179.363 97.5128 178.628 98.2058C177.892 98.8989 176.816 99.2459 175.397 99.2459ZM175.208 95.7474C174.4 95.7474 173.674 95.5798 173.034 95.2431C172.404 94.897 171.9 94.419 171.521 93.8093C171.154 93.2004 170.969 92.4963 170.969 91.6978C170.969 90.8891 171.154 90.1849 171.521 89.5863C171.9 88.9774 172.404 88.5046 173.034 88.1687C173.674 87.8319 174.4 87.6644 175.208 87.6644C175.923 87.6644 176.574 87.8115 177.163 88.1057C177.75 88.3889 178.218 88.8303 178.565 89.4289C178.922 90.0276 179.101 90.7845 179.101 91.6978C179.101 92.6018 178.922 93.3527 178.565 93.9513C178.218 94.55 177.75 95.0016 177.163 95.3069C176.574 95.6002 175.923 95.7474 175.208 95.7474ZM175.382 94.4241C175.938 94.4241 176.432 94.3085 176.862 94.0772C177.294 93.8459 177.63 93.5261 177.871 93.1162C178.124 92.7064 178.249 92.2335 178.249 91.6978C178.249 91.162 178.124 90.6892 177.871 90.2802C177.63 89.8703 177.294 89.5548 176.862 89.3345C176.432 89.1032 175.938 88.9876 175.382 88.9876C174.825 88.9876 174.326 89.1032 173.884 89.3345C173.454 89.5548 173.112 89.8703 172.861 90.2802C172.619 90.6892 172.498 91.162 172.498 91.6978C172.498 92.2335 172.619 92.7064 172.861 93.1162C173.112 93.5261 173.454 93.8459 173.884 94.0772C174.326 94.3085 174.825 94.4241 175.382 94.4241ZM188.492 96.2202C187.84 96.2202 187.231 96.0841 186.663 95.8103C186.096 95.5373 185.634 95.1436 185.277 94.6291L186.191 93.5576C186.496 93.9777 186.837 94.3034 187.215 94.5347C187.604 94.755 188.029 94.8655 188.492 94.8655C189.752 94.8655 190.382 94.1197 190.382 92.6281V86.4347H186.395V85.0639H191.942V92.549C191.942 93.7778 191.648 94.6971 191.06 95.3069C190.482 95.9157 189.626 96.2202 188.492 96.2202ZM198.508 96.1887C197.668 96.1887 196.922 96.005 196.271 95.6377C195.62 95.2694 195.105 94.7652 194.727 94.1248C194.348 93.4734 194.159 92.7378 194.159 91.9189C194.159 91.0889 194.348 90.3533 194.727 89.713C195.105 89.0718 195.62 88.5726 196.271 88.2154C196.922 87.8481 197.668 87.6644 198.508 87.6644C199.338 87.6644 200.079 87.8481 200.73 88.2154C201.392 88.5726 201.907 89.0718 202.274 89.713C202.652 90.3431 202.841 91.0778 202.841 91.9189C202.841 92.7489 202.652 93.4836 202.274 94.1248C201.907 94.7652 201.392 95.2694 200.73 95.6377C200.079 96.005 199.338 96.1887 198.508 96.1887ZM198.508 94.8655C199.044 94.8655 199.522 94.7447 199.942 94.5032C200.373 94.2609 200.709 93.9199 200.951 93.4785C201.192 93.027 201.313 92.5065 201.313 91.9189C201.313 91.3202 201.192 90.8049 200.951 90.3746C200.709 89.9332 200.373 89.5922 199.942 89.3498C199.522 89.1083 199.044 88.9876 198.508 88.9876C197.973 88.9876 197.495 89.1083 197.075 89.3498C196.655 89.5922 196.318 89.9332 196.066 90.3746C195.813 90.8049 195.688 91.3202 195.688 91.9189C195.688 92.5065 195.813 93.027 196.066 93.4785C196.318 93.9199 196.655 94.2609 197.075 94.5032C197.495 94.7447 197.973 94.8655 198.508 94.8655ZM208.589 99.2459C207.823 99.2459 207.077 99.1353 206.352 98.9151C205.637 98.705 205.055 98.3997 204.602 98.0009L205.328 96.835C205.716 97.1709 206.194 97.4337 206.761 97.6225C207.329 97.8223 207.922 97.9218 208.542 97.9218C209.529 97.9218 210.254 97.6914 210.717 97.2287C211.178 96.767 211.41 96.0629 211.41 95.1172V93.3527L211.567 91.6978L211.489 90.0276V87.7426H212.923V94.9599C212.923 96.4302 212.555 97.5128 211.82 98.2058C211.084 98.8989 210.007 99.2459 208.589 99.2459ZM208.4 95.7474C207.591 95.7474 206.867 95.5798 206.226 95.2431C205.596 94.897 205.091 94.419 204.713 93.8093C204.345 93.2004 204.162 92.4963 204.162 91.6978C204.162 90.8891 204.345 90.1849 204.713 89.5863C205.091 88.9774 205.596 88.5046 206.226 88.1687C206.867 87.8319 207.591 87.6644 208.4 87.6644C209.114 87.6644 209.766 87.8115 210.354 88.1057C210.942 88.3889 211.41 88.8303 211.757 89.4289C212.114 90.0276 212.292 90.7845 212.292 91.6978C212.292 92.6018 212.114 93.3527 211.757 93.9513C211.41 94.55 210.942 95.0016 210.354 95.3069C209.766 95.6002 209.114 95.7474 208.4 95.7474ZM208.574 94.4241C209.131 94.4241 209.624 94.3085 210.055 94.0772C210.485 93.8459 210.821 93.5261 211.063 93.1162C211.315 92.7064 211.441 92.2335 211.441 91.6978C211.441 91.162 211.315 90.6892 211.063 90.2802C210.821 89.8703 210.485 89.5548 210.055 89.3345C209.624 89.1032 209.131 88.9876 208.574 88.9876C208.017 88.9876 207.517 89.1032 207.077 89.3345C206.646 89.5548 206.305 89.8703 206.052 90.2802C205.811 90.6892 205.69 91.162 205.69 91.6978C205.69 92.2335 205.811 92.7064 206.052 93.1162C206.305 93.5261 206.646 93.8459 207.077 94.0772C207.517 94.3085 208.017 94.4241 208.574 94.4241ZM214.742 99.2459C214.395 99.2459 214.064 99.2034 213.748 99.12C213.423 99.0358 213.15 98.91 212.929 98.7416L213.417 97.5757C213.733 97.8385 214.143 97.9694 214.647 97.9694C215.046 97.9694 215.35 97.8436 215.56 97.591C215.782 97.3495 215.891 96.9872 215.891 96.5042V87.7426H217.404V96.4727C217.404 97.3231 217.174 97.9958 216.711 98.489C216.259 98.9933 215.603 99.2459 214.742 99.2459ZM216.648 86.1354C216.354 86.1354 216.107 86.041 215.907 85.8522C215.719 85.6634 215.623 85.4321 215.623 85.1591C215.623 84.8752 215.719 84.6388 215.907 84.4497C216.107 84.2606 216.354 84.166 216.648 84.166C216.942 84.166 217.184 84.2606 217.373 84.4497C217.573 84.6283 217.672 84.8542 217.672 85.1276C217.672 85.4108 217.578 85.6523 217.389 85.8522C217.199 86.041 216.953 86.1354 216.648 86.1354ZM225.475 96.0943V94.3298L225.396 93.999V90.9886C225.396 90.3482 225.207 89.8541 224.829 89.508C224.462 89.1509 223.905 88.9723 223.159 88.9723C222.665 88.9723 222.182 89.0565 221.709 89.224C221.236 89.3813 220.837 89.5973 220.511 89.8703L219.881 88.7359C220.312 88.3889 220.826 88.1261 221.426 87.9475C222.035 87.7588 222.67 87.6644 223.332 87.6644C224.477 87.6644 225.36 87.9424 225.979 88.4995C226.599 89.0565 226.909 89.9069 226.909 91.0523V96.0943H225.475ZM222.734 96.1887C222.114 96.1887 221.567 96.0841 221.094 95.8741C220.632 95.664 220.275 95.3749 220.023 95.0067C219.771 94.6291 219.645 94.203 219.645 93.7311C219.645 93.2787 219.75 92.8696 219.96 92.5014C220.181 92.134 220.533 91.8398 221.016 91.6195C221.509 91.3984 222.171 91.2887 223.001 91.2887H225.648V92.3755H223.064C222.308 92.3755 221.798 92.5014 221.535 92.754C221.273 93.0057 221.142 93.3101 221.142 93.6673C221.142 94.0772 221.305 94.408 221.63 94.6606C221.955 94.9021 222.408 95.0228 222.985 95.0228C223.552 95.0228 224.047 94.897 224.467 94.6444C224.897 94.3927 225.207 94.0245 225.396 93.5414L225.695 94.5815C225.496 95.0755 225.144 95.4693 224.64 95.7635C224.136 96.0467 223.5 96.1887 222.734 96.1887Z" fill="#F5F5F5"/>
</svg>
