<svg width="271" height="127" viewBox="0 0 271 127" fill="none" xmlns="http://www.w3.org/2000/svg">
<path d="M29.3695 22.4315C24.4904 24.7601 21.3024 27.4214 19.8054 30.4153C18.8075 32.5222 18.3085 35.1557 18.3085 38.316V50.874C18.3085 52.5373 19.1956 53.7016 20.9698 54.3669C21.6351 54.6442 22.3281 54.7828 23.0489 54.7828H29.3695V22.4315ZM39.183 71C35.4128 71 32.5852 69.7525 30.7001 67.2576C29.813 65.9824 29.3695 64.6517 29.3695 63.2656V59.2737C27.4844 61.1588 25.2112 62.129 22.5499 62.1845H18.4748V64.9289C18.4748 69.3644 16.0907 72.8851 11.3226 75.4909C9.21573 76.5998 6.94254 77.376 4.50302 77.8196L0.84375 72.9128C4.7248 71.0277 7.21976 68.8377 8.32863 66.3427C9.04939 64.6794 9.40978 62.5726 9.40978 60.0222V34.9894C9.40978 28.8352 12.3483 23.9562 18.2253 20.3523C20.7203 18.9108 23.437 17.8574 26.3755 17.192L29.3695 21.2671V20.1028L39.183 22.5146V71ZM55.816 87.1341C52.1568 87.1341 49.3569 85.8866 47.4163 83.3916C46.4183 82.1164 45.9194 80.7581 45.9194 79.3165V21.3503L55.816 23.9284V75.9068C55.816 77.6809 56.62 78.873 58.2278 79.4829C58.6714 79.6492 59.1426 79.7324 59.6416 79.7324H65.7959C65.7959 82.1719 64.7702 84.1956 62.7187 85.8034C61.5544 86.6905 60.3624 87.1341 59.1426 87.1341H55.816ZM106.048 17.691C109.763 17.691 112.562 18.9385 114.448 21.4335C114.614 21.6552 114.753 21.8493 114.863 22.0156C115.917 19.6316 117.552 18.2177 119.77 17.7742C120.158 17.7188 120.519 17.691 120.851 17.691H124.178C127.948 17.691 130.776 18.9385 132.661 21.4335C133.548 22.7087 133.991 24.0393 133.991 25.4254V62.6835C133.991 67.1744 135.322 70.501 137.983 72.6633C139.092 73.495 140.645 74.4098 142.641 75.4078L138.981 80.4808C133.492 79.5937 129.39 77.4869 126.673 74.1603C125.01 72.1643 124.178 69.9743 124.178 67.5902V67.5071V28.0867C124.178 26.8115 123.429 25.8967 121.932 25.3422C121.433 25.1759 120.907 25.0927 120.352 25.0927H115.861V71L106.048 63.2656V28.0867C106.048 26.8669 105.299 25.9798 103.802 25.4254C103.248 25.2036 102.694 25.0927 102.139 25.0927H97.6482V59.1074C97.6482 63.1547 95.7077 66.4259 91.8266 68.9209C90.1633 69.9189 88.3891 70.6119 86.504 71L82.8448 66.0932C85.6169 63.8755 87.2248 60.9647 87.6683 57.3609C87.7792 56.3629 87.8347 55.254 87.8347 54.0343V23.1799C85.6169 24.067 84.5081 25.9798 84.5081 28.9183L74.6946 25.5917C76.1915 21.5444 79.2964 19.0494 84.0091 18.1069C85.2288 17.8296 86.504 17.691 87.8347 17.691L97.3155 20.8513C98.6462 18.7999 100.448 17.7465 102.721 17.691H106.048ZM145.801 21.0176L152.953 27.3382L146.134 34.2409L138.898 27.9204L145.801 21.0176ZM151.04 71C147.326 71 144.498 69.7802 142.557 67.3407C141.615 66.0655 141.144 64.7072 141.144 63.2656V39.4803L151.04 42.0585V60.6875C151.428 62.2399 152.371 63.2102 153.868 63.5983C154.201 63.6537 154.506 63.6815 154.783 63.6815H161.02C161.02 66.1764 159.994 68.2001 157.943 69.7525C156.779 70.5842 155.587 71 154.367 71H151.04ZM168.422 63.5983H193.787C193.787 66.1487 192.762 68.2001 190.71 69.7525C189.546 70.5842 188.354 71 187.134 71H166.176C163.737 71 161.602 70.0852 159.773 68.2555C158.719 67.1467 158.165 66.0378 158.109 64.9289C158.165 64.2636 158.303 63.7092 158.525 63.2656C160.41 59.9945 165.816 54.8382 174.742 47.7969C171.249 45.9672 165.733 45.0524 158.193 45.0524L161.519 35.3221C167.562 35.3221 172.996 37.0408 177.82 40.4783C182.532 43.9713 184.916 47.9909 184.972 52.5373C184.972 52.5373 182.56 53.8679 177.736 56.5292C172.968 59.3569 169.863 61.7132 168.422 63.5983ZM213.331 21.0176L220.483 27.3382L213.664 34.2409L206.428 27.9204L213.331 21.0176ZM197.862 21.0176L205.015 27.3382L198.195 34.2409L190.96 27.9204L197.862 21.0176ZM200.69 56.3629V59.7727C200.69 61.4914 201.466 62.6835 203.019 63.3488C203.573 63.5706 204.1 63.6815 204.599 63.6815H209.755V63.2656V39.4803L219.652 42.0585V59.7727C219.652 61.5469 220.428 62.7666 221.98 63.432C222.479 63.5983 222.951 63.6815 223.394 63.6815H229.632C229.632 66.1764 228.606 68.2001 226.554 69.7525C225.39 70.5842 224.198 71 222.978 71H219.652C215.882 71 213.054 69.7248 211.169 67.1744C211.113 67.0635 211.058 66.9803 211.003 66.9249C209.949 69.1426 208.341 70.4733 206.179 70.9168C205.791 70.9723 205.43 71 205.098 71H198.611C195.839 71 193.676 69.808 192.124 67.4239C191.348 66.1487 190.96 64.7626 190.96 63.2656V53.0363C190.96 47.9909 193.538 43.999 198.694 41.0605C200.856 39.8962 203.185 39.0645 205.68 38.5655L209.339 43.4723C205.403 45.4128 202.88 47.6305 201.771 50.1255C201.05 51.7888 200.69 53.8679 200.69 56.3629ZM236.701 46.8821V63.2656C236.701 66.0378 235.259 68.1724 232.376 69.6694C230.657 70.5565 228.8 71 226.804 71H222.978L226.804 63.7646V42.1416L236.701 39.5635V41.7258C238.087 40.3397 239.611 39.619 241.275 39.5635H244.518C248.233 39.5635 251.06 40.7833 253.001 43.2228C253.944 44.498 254.415 45.8564 254.415 47.2979V62.6835C254.415 67.0081 255.662 70.2515 258.157 72.4138C259.377 73.4118 261.013 74.4098 263.064 75.4078L259.405 80.4808C253.971 79.6492 249.841 77.5701 247.013 74.2434C245.35 72.192 244.518 69.9743 244.518 67.5902V50.7077C244.518 48.878 243.714 47.686 242.106 47.1316C241.663 46.9652 241.219 46.8821 240.776 46.8821H236.701Z" fill="#3182CE"/>
<path d="M11.7256 113.148C10.7374 113.148 9.79235 113 8.89059 112.704C7.98882 112.395 7.27853 111.999 6.75971 111.518L7.44529 110.072C7.93941 110.505 8.56941 110.863 9.33529 111.147C10.1012 111.431 10.8979 111.573 11.7256 111.573C12.4791 111.573 13.0906 111.487 13.56 111.314C14.0294 111.141 14.3753 110.906 14.5976 110.61C14.82 110.301 14.9312 109.955 14.9312 109.572C14.9312 109.127 14.7829 108.769 14.4865 108.497C14.2023 108.226 13.8256 108.009 13.3562 107.849C12.8991 107.676 12.3926 107.528 11.8368 107.404C11.2809 107.281 10.7188 107.139 10.1506 106.978C9.5947 106.805 9.08206 106.589 8.61265 106.329C8.15559 106.07 7.785 105.724 7.50088 105.292C7.21676 104.847 7.07471 104.279 7.07471 103.587C7.07471 102.92 7.24765 102.309 7.59353 101.753C7.95176 101.184 8.49529 100.734 9.22412 100.4C9.96529 100.054 10.9041 99.8812 12.0406 99.8812C12.7941 99.8812 13.5415 99.98 14.2826 100.178C15.0238 100.375 15.6662 100.659 16.2097 101.03L15.5982 102.512C15.0423 102.142 14.4556 101.876 13.8379 101.716C13.2203 101.543 12.6212 101.456 12.0406 101.456C11.3118 101.456 10.7126 101.549 10.2432 101.734C9.77382 101.919 9.42794 102.166 9.20559 102.475C8.99559 102.784 8.89059 103.13 8.89059 103.513C8.89059 103.97 9.03265 104.334 9.31676 104.606C9.61323 104.878 9.99 105.094 10.4471 105.255C10.9165 105.415 11.4291 105.564 11.985 105.699C12.5409 105.823 13.0968 105.965 13.6526 106.126C14.2209 106.286 14.7335 106.496 15.1906 106.756C15.66 107.015 16.0368 107.361 16.3209 107.793C16.605 108.226 16.7471 108.781 16.7471 109.461C16.7471 110.116 16.5679 110.727 16.2097 111.295C15.8515 111.851 15.2956 112.302 14.5421 112.648C13.8009 112.981 12.8621 113.148 11.7256 113.148ZM23.5676 113.111C22.5176 113.111 21.5911 112.895 20.7882 112.463C19.9976 112.03 19.38 111.437 18.9353 110.684C18.5029 109.93 18.2867 109.066 18.2867 108.09C18.2867 107.114 18.4967 106.249 18.9167 105.496C19.3491 104.742 19.9358 104.155 20.677 103.735C21.4306 103.303 22.2767 103.087 23.2156 103.087C24.1667 103.087 25.0067 103.297 25.7356 103.717C26.4644 104.137 27.0326 104.73 27.4403 105.496C27.8603 106.249 28.0703 107.132 28.0703 108.145C28.0703 108.219 28.0641 108.306 28.0517 108.405C28.0517 108.504 28.0456 108.596 28.0332 108.683H19.6764V107.404H27.1067L26.3841 107.849C26.3964 107.219 26.2667 106.657 25.995 106.163C25.7232 105.669 25.3464 105.286 24.8647 105.014C24.3953 104.73 23.8456 104.588 23.2156 104.588C22.5979 104.588 22.0482 104.73 21.5664 105.014C21.0847 105.286 20.7079 105.675 20.4361 106.181C20.1644 106.675 20.0285 107.244 20.0285 107.886V108.182C20.0285 108.837 20.1767 109.424 20.4732 109.943C20.782 110.449 21.2082 110.844 21.7517 111.129C22.2953 111.413 22.9191 111.555 23.6232 111.555C24.2038 111.555 24.7288 111.456 25.1982 111.258C25.68 111.061 26.1 110.764 26.4582 110.369L27.4403 111.518C26.9956 112.036 26.4397 112.432 25.7726 112.704C25.1179 112.975 24.3829 113.111 23.5676 113.111ZM32.4347 113L28.7844 103.179H30.4705L33.7132 112.074H32.9164L36.2888 103.179H37.7897L41.0879 112.074H40.3097L43.6264 103.179H45.2199L41.5511 113H39.8464L36.752 104.884H37.2708L34.1394 113H32.4347ZM52.8135 113V110.925L52.7209 110.536V106.996C52.7209 106.243 52.4985 105.662 52.0538 105.255C51.6215 104.835 50.9668 104.625 50.0897 104.625C49.5091 104.625 48.9409 104.724 48.385 104.921C47.8291 105.106 47.3597 105.36 46.9768 105.681L46.2356 104.347C46.7421 103.939 47.3473 103.63 48.0515 103.42C48.7679 103.198 49.5153 103.087 50.2935 103.087C51.64 103.087 52.6776 103.414 53.4065 104.069C54.1353 104.724 54.4997 105.724 54.4997 107.071V113H52.8135ZM49.5894 113.111C48.8606 113.111 48.2182 112.988 47.6623 112.741C47.1188 112.494 46.6988 112.154 46.4023 111.721C46.1059 111.277 45.9576 110.776 45.9576 110.221C45.9576 109.689 46.0812 109.208 46.3282 108.775C46.5876 108.343 47.0015 107.997 47.5697 107.738C48.1503 107.478 48.9285 107.349 49.9044 107.349H53.0173V108.627H49.9785C49.0891 108.627 48.49 108.775 48.1812 109.072C47.8723 109.368 47.7179 109.726 47.7179 110.146C47.7179 110.628 47.9094 111.017 48.2923 111.314C48.6753 111.598 49.2065 111.74 49.8859 111.74C50.5529 111.74 51.1335 111.592 51.6276 111.295C52.1341 110.999 52.4985 110.566 52.7209 109.998L53.0729 111.221C52.8382 111.802 52.4244 112.265 51.8315 112.611C51.2385 112.944 50.4912 113.111 49.5894 113.111ZM63.0271 113V100.029H64.5465L70.3648 109.831H69.5495L75.2936 100.029H76.813L76.8315 113H75.0527L75.0342 102.827H75.4604L70.3462 111.425H69.4939L64.3427 102.827H64.806V113H63.0271ZM84.6709 113.111C83.6827 113.111 82.8056 112.895 82.0397 112.463C81.2739 112.03 80.6686 111.437 80.2239 110.684C79.7792 109.918 79.5568 109.053 79.5568 108.09C79.5568 107.114 79.7792 106.249 80.2239 105.496C80.6686 104.742 81.2739 104.155 82.0397 103.735C82.8056 103.303 83.6827 103.087 84.6709 103.087C85.6468 103.087 86.5177 103.303 87.2836 103.735C88.0618 104.155 88.6671 104.742 89.0995 105.496C89.5442 106.237 89.7665 107.101 89.7665 108.09C89.7665 109.066 89.5442 109.93 89.0995 110.684C88.6671 111.437 88.0618 112.03 87.2836 112.463C86.5177 112.895 85.6468 113.111 84.6709 113.111ZM84.6709 111.555C85.3009 111.555 85.863 111.413 86.3571 111.129C86.8636 110.844 87.2589 110.443 87.543 109.924C87.8271 109.393 87.9692 108.781 87.9692 108.09C87.9692 107.386 87.8271 106.78 87.543 106.274C87.2589 105.755 86.8636 105.354 86.3571 105.069C85.863 104.785 85.3009 104.643 84.6709 104.643C84.0409 104.643 83.4789 104.785 82.9847 105.069C82.4906 105.354 82.0953 105.755 81.7989 106.274C81.5024 106.78 81.3542 107.386 81.3542 108.09C81.3542 108.781 81.5024 109.393 81.7989 109.924C82.0953 110.443 82.4906 110.844 82.9847 111.129C83.4789 111.413 84.0409 111.555 84.6709 111.555ZM97.4333 113.111C96.5933 113.111 95.8336 112.926 95.1542 112.555C94.4872 112.172 93.956 111.61 93.5607 110.869C93.1778 110.128 92.9863 109.201 92.9863 108.09C92.9863 106.978 93.1839 106.051 93.5792 105.31C93.9869 104.569 94.5242 104.013 95.1913 103.643C95.8707 103.272 96.6181 103.087 97.4333 103.087C98.3969 103.087 99.2492 103.297 99.9904 103.717C100.732 104.137 101.318 104.724 101.751 105.477C102.183 106.218 102.399 107.089 102.399 108.09C102.399 109.09 102.183 109.967 101.751 110.721C101.318 111.474 100.732 112.061 99.9904 112.481C99.2492 112.901 98.3969 113.111 97.4333 113.111ZM92.2266 113V99.2512H94.0054V105.792L93.8201 108.071L93.9313 110.35V113H92.2266ZM97.2851 111.555C97.9151 111.555 98.4772 111.413 98.9713 111.129C99.4778 110.844 99.873 110.443 100.157 109.924C100.454 109.393 100.602 108.781 100.602 108.09C100.602 107.386 100.454 106.78 100.157 106.274C99.873 105.755 99.4778 105.354 98.9713 105.069C98.4772 104.785 97.9151 104.643 97.2851 104.643C96.6675 104.643 96.1054 104.785 95.5989 105.069C95.1048 105.354 94.7095 105.755 94.4131 106.274C94.1289 106.78 93.9869 107.386 93.9869 108.09C93.9869 108.781 94.1289 109.393 94.4131 109.924C94.7095 110.443 95.1048 110.844 95.5989 111.129C96.1054 111.413 96.6675 111.555 97.2851 111.555ZM104.857 113V103.179H106.636V113H104.857ZM105.746 101.289C105.401 101.289 105.11 101.178 104.876 100.956C104.653 100.734 104.542 100.462 104.542 100.141C104.542 99.8071 104.653 99.5291 104.876 99.3068C105.11 99.0844 105.401 98.9732 105.746 98.9732C106.092 98.9732 106.376 99.0844 106.599 99.3068C106.833 99.5168 106.951 99.7824 106.951 100.104C106.951 100.437 106.84 100.721 106.617 100.956C106.395 101.178 106.105 101.289 105.746 101.289ZM110.032 113V99.2512H111.811V113H110.032ZM120.443 113V100.029H121.962L127.781 109.831H126.965L132.709 100.029H134.229L134.247 113H132.469L132.45 102.827H132.876L127.762 111.425H126.91L121.759 102.827H122.222V113H120.443ZM143.977 113V110.925L143.884 110.536V106.996C143.884 106.243 143.662 105.662 143.217 105.255C142.785 104.835 142.13 104.625 141.253 104.625C140.672 104.625 140.104 104.724 139.548 104.921C138.992 105.106 138.523 105.36 138.14 105.681L137.399 104.347C137.905 103.939 138.511 103.63 139.215 103.42C139.931 103.198 140.679 103.087 141.457 103.087C142.803 103.087 143.841 103.414 144.57 104.069C145.299 104.724 145.663 105.724 145.663 107.071V113H143.977ZM140.753 113.111C140.024 113.111 139.381 112.988 138.826 112.741C138.282 112.494 137.862 112.154 137.566 111.721C137.269 111.277 137.121 110.776 137.121 110.221C137.121 109.689 137.244 109.208 137.491 108.775C137.751 108.343 138.165 107.997 138.733 107.738C139.314 107.478 140.092 107.349 141.068 107.349H144.181V108.627H141.142C140.252 108.627 139.653 108.775 139.344 109.072C139.036 109.368 138.881 109.726 138.881 110.146C138.881 110.628 139.073 111.017 139.456 111.314C139.839 111.598 140.37 111.74 141.049 111.74C141.716 111.74 142.297 111.592 142.791 111.295C143.297 110.999 143.662 110.566 143.884 109.998L144.236 111.221C144.001 111.802 143.588 112.265 142.995 112.611C142.402 112.944 141.654 113.111 140.753 113.111ZM153.254 116.706C152.352 116.706 151.475 116.576 150.622 116.317C149.782 116.07 149.097 115.711 148.566 115.242L149.418 113.871C149.875 114.266 150.437 114.575 151.104 114.797C151.771 115.032 152.469 115.149 153.198 115.149C154.359 115.149 155.212 114.878 155.755 114.334C156.299 113.791 156.57 112.963 156.57 111.851V109.776L156.756 107.83L156.663 105.866V103.179H158.349V111.666C158.349 113.395 157.917 114.668 157.052 115.483C156.187 116.298 154.921 116.706 153.254 116.706ZM153.031 112.592C152.08 112.592 151.228 112.395 150.474 111.999C149.733 111.592 149.14 111.03 148.695 110.313C148.263 109.597 148.047 108.769 148.047 107.83C148.047 106.879 148.263 106.051 148.695 105.347C149.14 104.631 149.733 104.075 150.474 103.68C151.228 103.284 152.08 103.087 153.031 103.087C153.871 103.087 154.637 103.26 155.329 103.606C156.021 103.939 156.57 104.458 156.978 105.162C157.398 105.866 157.608 106.756 157.608 107.83C157.608 108.893 157.398 109.776 156.978 110.48C156.57 111.184 156.021 111.715 155.329 112.074C154.637 112.419 153.871 112.592 153.031 112.592ZM153.235 111.036C153.89 111.036 154.47 110.9 154.977 110.628C155.483 110.356 155.879 109.98 156.163 109.498C156.459 109.016 156.607 108.46 156.607 107.83C156.607 107.2 156.459 106.644 156.163 106.163C155.879 105.681 155.483 105.31 154.977 105.051C154.47 104.779 153.89 104.643 153.235 104.643C152.58 104.643 151.994 104.779 151.475 105.051C150.968 105.31 150.567 105.681 150.27 106.163C149.986 106.644 149.844 107.2 149.844 107.83C149.844 108.46 149.986 109.016 150.27 109.498C150.567 109.98 150.968 110.356 151.475 110.628C151.994 110.9 152.58 111.036 153.235 111.036ZM166.121 113.111C165.071 113.111 164.145 112.895 163.342 112.463C162.551 112.03 161.933 111.437 161.489 110.684C161.056 109.93 160.84 109.066 160.84 108.09C160.84 107.114 161.05 106.249 161.47 105.496C161.902 104.742 162.489 104.155 163.23 103.735C163.984 103.303 164.83 103.087 165.769 103.087C166.72 103.087 167.56 103.297 168.289 103.717C169.018 104.137 169.586 104.73 169.994 105.496C170.414 106.249 170.624 107.132 170.624 108.145C170.624 108.219 170.617 108.306 170.605 108.405C170.605 108.504 170.599 108.596 170.587 108.683H162.23V107.404H169.66L168.937 107.849C168.95 107.219 168.82 106.657 168.548 106.163C168.277 105.669 167.9 105.286 167.418 105.014C166.949 104.73 166.399 104.588 165.769 104.588C165.151 104.588 164.602 104.73 164.12 105.014C163.638 105.286 163.261 105.675 162.99 106.181C162.718 106.675 162.582 107.244 162.582 107.886V108.182C162.582 108.837 162.73 109.424 163.027 109.943C163.335 110.449 163.762 110.844 164.305 111.129C164.849 111.413 165.472 111.555 166.177 111.555C166.757 111.555 167.282 111.456 167.752 111.258C168.233 111.061 168.653 110.764 169.012 110.369L169.994 111.518C169.549 112.036 168.993 112.432 168.326 112.704C167.671 112.975 166.936 113.111 166.121 113.111ZM173.094 113V99.2512H174.872V113H173.094ZM184.365 113V110.925L184.272 110.536V106.996C184.272 106.243 184.05 105.662 183.605 105.255C183.173 104.835 182.518 104.625 181.641 104.625C181.061 104.625 180.492 104.724 179.937 104.921C179.381 105.106 178.911 105.36 178.528 105.681L177.787 104.347C178.294 103.939 178.899 103.63 179.603 103.42C180.319 103.198 181.067 103.087 181.845 103.087C183.192 103.087 184.229 103.414 184.958 104.069C185.687 104.724 186.051 105.724 186.051 107.071V113H184.365ZM181.141 113.111C180.412 113.111 179.77 112.988 179.214 112.741C178.67 112.494 178.25 112.154 177.954 111.721C177.657 111.277 177.509 110.776 177.509 110.221C177.509 109.689 177.633 109.208 177.88 108.775C178.139 108.343 178.553 107.997 179.121 107.738C179.702 107.478 180.48 107.349 181.456 107.349H184.569V108.627H181.53C180.641 108.627 180.042 108.775 179.733 109.072C179.424 109.368 179.269 109.726 179.269 110.146C179.269 110.628 179.461 111.017 179.844 111.314C180.227 111.598 180.758 111.74 181.437 111.74C182.104 111.74 182.685 111.592 183.179 111.295C183.686 110.999 184.05 110.566 184.272 109.998L184.624 111.221C184.39 111.802 183.976 112.265 183.383 112.611C182.79 112.944 182.043 113.111 181.141 113.111ZM194.587 103.087C195.39 103.087 196.094 103.241 196.699 103.55C197.317 103.859 197.799 104.328 198.145 104.958C198.49 105.588 198.663 106.385 198.663 107.349V113H196.885V107.552C196.885 106.601 196.65 105.885 196.18 105.403C195.723 104.921 195.075 104.68 194.235 104.68C193.605 104.68 193.055 104.804 192.586 105.051C192.116 105.298 191.752 105.662 191.493 106.144C191.245 106.626 191.122 107.225 191.122 107.941V113H189.343V103.179H191.048V105.829L190.77 105.125C191.091 104.483 191.585 103.982 192.252 103.624C192.919 103.266 193.698 103.087 194.587 103.087ZM206.254 116.706C205.352 116.706 204.475 116.576 203.623 116.317C202.783 116.07 202.097 115.711 201.566 115.242L202.419 113.871C202.876 114.266 203.438 114.575 204.105 114.797C204.772 115.032 205.47 115.149 206.199 115.149C207.36 115.149 208.212 114.878 208.756 114.334C209.299 113.791 209.571 112.963 209.571 111.851V109.776L209.756 107.83L209.664 105.866V103.179H211.35V111.666C211.35 113.395 210.917 114.668 210.053 115.483C209.188 116.298 207.922 116.706 206.254 116.706ZM206.032 112.592C205.081 112.592 204.228 112.395 203.475 111.999C202.734 111.592 202.141 111.03 201.696 110.313C201.264 109.597 201.047 108.769 201.047 107.83C201.047 106.879 201.264 106.051 201.696 105.347C202.141 104.631 202.734 104.075 203.475 103.68C204.228 103.284 205.081 103.087 206.032 103.087C206.872 103.087 207.638 103.26 208.33 103.606C209.021 103.939 209.571 104.458 209.979 105.162C210.399 105.866 210.609 106.756 210.609 107.83C210.609 108.893 210.399 109.776 209.979 110.48C209.571 111.184 209.021 111.715 208.33 112.074C207.638 112.419 206.872 112.592 206.032 112.592ZM206.236 111.036C206.89 111.036 207.471 110.9 207.977 110.628C208.484 110.356 208.879 109.98 209.163 109.498C209.46 109.016 209.608 108.46 209.608 107.83C209.608 107.2 209.46 106.644 209.163 106.163C208.879 105.681 208.484 105.31 207.977 105.051C207.471 104.779 206.89 104.643 206.236 104.643C205.581 104.643 204.994 104.779 204.475 105.051C203.969 105.31 203.567 105.681 203.271 106.163C202.987 106.644 202.845 107.2 202.845 107.83C202.845 108.46 202.987 109.016 203.271 109.498C203.567 109.98 203.969 110.356 204.475 110.628C204.994 110.9 205.581 111.036 206.236 111.036ZM221.652 113.148C220.886 113.148 220.17 112.988 219.502 112.666C218.835 112.345 218.292 111.882 217.872 111.277L218.947 110.017C219.305 110.511 219.706 110.894 220.151 111.166C220.608 111.425 221.108 111.555 221.652 111.555C223.134 111.555 223.875 110.678 223.875 108.924V101.641H219.187V100.029H225.71V108.831C225.71 110.276 225.364 111.357 224.672 112.074C223.993 112.79 222.986 113.148 221.652 113.148ZM233.431 113.111C232.443 113.111 231.566 112.895 230.8 112.463C230.034 112.03 229.429 111.437 228.984 110.684C228.539 109.918 228.317 109.053 228.317 108.09C228.317 107.114 228.539 106.249 228.984 105.496C229.429 104.742 230.034 104.155 230.8 103.735C231.566 103.303 232.443 103.087 233.431 103.087C234.407 103.087 235.278 103.303 236.044 103.735C236.822 104.155 237.427 104.742 237.859 105.496C238.304 106.237 238.526 107.101 238.526 108.09C238.526 109.066 238.304 109.93 237.859 110.684C237.427 111.437 236.822 112.03 236.044 112.463C235.278 112.895 234.407 113.111 233.431 113.111ZM233.431 111.555C234.061 111.555 234.623 111.413 235.117 111.129C235.624 110.844 236.019 110.443 236.303 109.924C236.587 109.393 236.729 108.781 236.729 108.09C236.729 107.386 236.587 106.78 236.303 106.274C236.019 105.755 235.624 105.354 235.117 105.069C234.623 104.785 234.061 104.643 233.431 104.643C232.801 104.643 232.239 104.785 231.745 105.069C231.251 105.354 230.855 105.755 230.559 106.274C230.262 106.78 230.114 107.386 230.114 108.09C230.114 108.781 230.262 109.393 230.559 109.924C230.855 110.443 231.251 110.844 231.745 111.129C232.239 111.413 232.801 111.555 233.431 111.555ZM245.285 116.706C244.384 116.706 243.507 116.576 242.654 116.317C241.814 116.07 241.129 115.711 240.597 115.242L241.45 113.871C241.907 114.266 242.469 114.575 243.136 114.797C243.803 115.032 244.501 115.149 245.23 115.149C246.391 115.149 247.243 114.878 247.787 114.334C248.33 113.791 248.602 112.963 248.602 111.851V109.776L248.787 107.83L248.695 105.866V103.179H250.381V111.666C250.381 113.395 249.949 114.668 249.084 115.483C248.219 116.298 246.953 116.706 245.285 116.706ZM245.063 112.592C244.112 112.592 243.26 112.395 242.506 111.999C241.765 111.592 241.172 111.03 240.727 110.313C240.295 109.597 240.079 108.769 240.079 107.83C240.079 106.879 240.295 106.051 240.727 105.347C241.172 104.631 241.765 104.075 242.506 103.68C243.26 103.284 244.112 103.087 245.063 103.087C245.903 103.087 246.669 103.26 247.361 103.606C248.052 103.939 248.602 104.458 249.01 105.162C249.43 105.866 249.64 106.756 249.64 107.83C249.64 108.893 249.43 109.776 249.01 110.48C248.602 111.184 248.052 111.715 247.361 112.074C246.669 112.419 245.903 112.592 245.063 112.592ZM245.267 111.036C245.922 111.036 246.502 110.9 247.009 110.628C247.515 110.356 247.91 109.98 248.194 109.498C248.491 109.016 248.639 108.46 248.639 107.83C248.639 107.2 248.491 106.644 248.194 106.163C247.91 105.681 247.515 105.31 247.009 105.051C246.502 104.779 245.922 104.643 245.267 104.643C244.612 104.643 244.025 104.779 243.507 105.051C243 105.31 242.599 105.681 242.302 106.163C242.018 106.644 241.876 107.2 241.876 107.83C241.876 108.46 242.018 109.016 242.302 109.498C242.599 109.98 243 110.356 243.507 110.628C244.025 110.9 244.612 111.036 245.267 111.036ZM252.52 116.706C252.112 116.706 251.723 116.656 251.352 116.558C250.97 116.459 250.648 116.311 250.389 116.113L250.963 114.742C251.334 115.051 251.816 115.205 252.409 115.205C252.878 115.205 253.236 115.057 253.483 114.76C253.743 114.476 253.872 114.05 253.872 113.482V103.179H255.651V113.445C255.651 114.445 255.38 115.236 254.836 115.816C254.305 116.409 253.533 116.706 252.52 116.706ZM254.762 101.289C254.416 101.289 254.126 101.178 253.891 100.956C253.669 100.734 253.557 100.462 253.557 100.141C253.557 99.8071 253.669 99.5291 253.891 99.3068C254.126 99.0844 254.416 98.9732 254.762 98.9732C255.108 98.9732 255.392 99.0844 255.614 99.3068C255.849 99.5168 255.966 99.7824 255.966 100.104C255.966 100.437 255.855 100.721 255.633 100.956C255.41 101.178 255.12 101.289 254.762 101.289ZM265.142 113V110.925L265.049 110.536V106.996C265.049 106.243 264.827 105.662 264.382 105.255C263.95 104.835 263.295 104.625 262.418 104.625C261.837 104.625 261.269 104.724 260.713 104.921C260.157 105.106 259.688 105.36 259.305 105.681L258.564 104.347C259.07 103.939 259.675 103.63 260.38 103.42C261.096 103.198 261.843 103.087 262.622 103.087C263.968 103.087 265.006 103.414 265.735 104.069C266.463 104.724 266.828 105.724 266.828 107.071V113H265.142ZM261.918 113.111C261.189 113.111 260.546 112.988 259.99 112.741C259.447 112.494 259.027 112.154 258.73 111.721C258.434 111.277 258.286 110.776 258.286 110.221C258.286 109.689 258.409 109.208 258.656 108.775C258.916 108.343 259.33 107.997 259.898 107.738C260.478 107.478 261.257 107.349 262.233 107.349H265.345V108.627H262.307C261.417 108.627 260.818 108.775 260.509 109.072C260.2 109.368 260.046 109.726 260.046 110.146C260.046 110.628 260.238 111.017 260.62 111.314C261.003 111.598 261.535 111.74 262.214 111.74C262.881 111.74 263.462 111.592 263.956 111.295C264.462 110.999 264.827 110.566 265.049 109.998L265.401 111.221C265.166 111.802 264.753 112.265 264.16 112.611C263.567 112.944 262.819 113.111 261.918 113.111Z" fill="#2D3748"/>
</svg>
