<svg width="171" height="80" viewBox="0 0 171 80" fill="none" xmlns="http://www.w3.org/2000/svg">
<path d="M18.5005 14.1301C15.427 15.5969 13.4188 17.2733 12.4758 19.1592C11.8472 20.4864 11.5329 22.1453 11.5329 24.1361V32.0466C11.5329 33.0944 12.0917 33.8278 13.2093 34.2469C13.6284 34.4215 14.0649 34.5088 14.519 34.5088H18.5005V14.1301ZM24.6822 44.7244C22.3073 44.7244 20.5261 43.9386 19.3386 42.367C18.7798 41.5637 18.5005 40.7255 18.5005 39.8523V37.3378C17.313 38.5252 15.8811 39.1364 14.2047 39.1713H11.6377V40.9001C11.6377 43.6941 10.1359 45.9119 7.13235 47.5533C5.80518 48.2518 4.37325 48.7408 2.83655 49.0202L0.531494 45.9293C2.97625 44.7419 4.54788 43.3623 5.24638 41.7907C5.7004 40.7429 5.92742 39.4158 5.92742 37.8093V22.0406C5.92742 18.1639 7.77846 15.0905 11.4805 12.8203C13.0522 11.9123 14.7635 11.2488 16.6145 10.8296L18.5005 13.3966V12.6632L24.6822 14.1824V44.7244ZM35.1597 54.8876C32.8547 54.8876 31.091 54.1018 29.8685 52.5301C29.2399 51.7269 28.9256 50.8712 28.9256 49.9631V13.449L35.1597 15.073V47.8153C35.1597 48.9328 35.6661 49.6838 36.6789 50.068C36.9584 50.1727 37.2552 50.2251 37.5695 50.2251H41.4462C41.4462 51.7618 40.8001 53.0366 39.5078 54.0494C38.7744 54.6082 38.0236 54.8876 37.2552 54.8876H35.1597ZM66.8019 11.1439C69.1421 11.1439 70.9052 11.9298 72.0932 13.5014C72.1978 13.6411 72.2854 13.7633 72.3547 13.8681C73.0186 12.3664 74.0485 11.4757 75.4457 11.1963C75.6901 11.1614 75.9175 11.1439 76.1266 11.1439H78.2224C80.5972 11.1439 82.3786 11.9298 83.566 13.5014C84.1247 14.3047 84.4038 15.1429 84.4038 16.016V39.4857C84.4038 42.3146 85.2422 44.4101 86.9184 45.7722C87.617 46.2961 88.5953 46.8723 89.8526 47.501L87.5471 50.6966C84.0895 50.1378 81.5055 48.8106 79.794 46.7151C78.7465 45.4578 78.2224 44.0783 78.2224 42.5765V42.5242V17.6924C78.2224 16.8891 77.7506 16.3129 76.8076 15.9636C76.4932 15.8588 76.1619 15.8064 75.8123 15.8064H72.9833V44.7244L66.8019 39.8523V17.6924C66.8019 16.924 66.3301 16.3652 65.3871 16.016C65.0381 15.8763 64.6891 15.8064 64.3395 15.8064H61.5107V37.233C61.5107 39.7825 60.2883 41.8431 57.8435 43.4147C56.7958 44.0434 55.6782 44.4799 54.4907 44.7244L52.1857 41.6335C53.9319 40.2365 54.9448 38.403 55.2241 36.1328C55.294 35.5042 55.3289 34.8057 55.3289 34.0374V14.6015C53.9319 15.1603 53.2335 16.3652 53.2335 18.2163L47.0517 16.1208C47.9946 13.5713 49.9505 11.9996 52.9191 11.4059C53.6874 11.2312 54.4907 11.1439 55.3289 11.1439L61.3011 13.1347C62.1393 11.8425 63.2743 11.1789 64.7061 11.1439H66.8019ZM91.8432 13.2394L96.3484 17.2209L92.0529 21.5691L87.4948 17.5877L91.8432 13.2394ZM95.1433 44.7244C92.8038 44.7244 91.0224 43.956 89.7997 42.4193C89.2063 41.6161 88.9096 40.7604 88.9096 39.8523V24.8695L95.1433 26.4935V38.2283C95.3877 39.2062 95.9817 39.8174 96.9247 40.0619C97.1345 40.0968 97.3266 40.1143 97.5011 40.1143H101.43C101.43 41.6859 100.784 42.9607 99.4917 43.9386C98.7584 44.4625 98.0076 44.7244 97.2391 44.7244H95.1433ZM106.093 40.0619H122.071C122.071 41.6685 121.425 42.9607 120.132 43.9386C119.399 44.4625 118.648 44.7244 117.88 44.7244H104.678C103.141 44.7244 101.797 44.1482 100.644 42.9956C99.9805 42.2971 99.6315 41.5986 99.5962 40.9001C99.6315 40.481 99.7184 40.1318 99.8583 39.8523C101.046 37.7918 104.451 34.5437 110.074 30.1083C107.873 28.9557 104.399 28.3795 99.6491 28.3795L101.744 22.2501C105.551 22.2501 108.974 23.3328 112.013 25.4981C114.981 27.6985 116.483 30.2305 116.518 33.0944C116.518 33.0944 114.998 33.9325 111.96 35.6089C108.956 37.3902 107 38.8745 106.093 40.0619ZM134.382 13.2394L138.887 17.2209L134.592 21.5691L130.033 17.5877L134.382 13.2394ZM124.637 13.2394L129.143 17.2209L124.847 21.5691L120.29 17.5877L124.637 13.2394ZM126.419 35.5042V37.6521C126.419 38.7347 126.908 39.4857 127.886 39.9048C128.235 40.0445 128.567 40.1143 128.881 40.1143H132.129V39.8523V24.8695L138.363 26.4935V37.6521C138.363 38.7697 138.852 39.538 139.83 39.9572C140.144 40.0619 140.442 40.1143 140.721 40.1143H144.65C144.65 41.6859 144.004 42.9607 142.711 43.9386C141.978 44.4625 141.227 44.7244 140.459 44.7244H138.363C135.989 44.7244 134.207 43.9211 133.02 42.3146C132.985 42.2447 132.95 42.1923 132.915 42.1574C132.251 43.5544 131.238 44.3926 129.877 44.672C129.632 44.707 129.405 44.7244 129.196 44.7244H125.109C123.363 44.7244 122.001 43.9735 121.023 42.4717C120.534 41.6685 120.29 40.7953 120.29 39.8523V33.4087C120.29 30.2305 121.914 27.7159 125.162 25.8649C126.523 25.1315 127.991 24.6076 129.562 24.2932L131.867 27.3841C129.388 28.6065 127.798 30.0035 127.1 31.5751C126.646 32.6229 126.419 33.9325 126.419 35.5042ZM149.103 29.532V39.8523C149.103 41.5986 148.195 42.9432 146.379 43.8862C145.296 44.445 144.126 44.7244 142.869 44.7244H140.459L142.869 40.1667V26.5459L149.103 24.9219V26.284C149.976 25.4108 150.936 24.9568 151.984 24.9219H154.027C156.367 24.9219 158.148 25.6903 159.371 27.227C159.965 28.0302 160.261 28.8859 160.261 29.794V39.4857C160.261 42.2098 161.047 44.2529 162.619 45.615C163.387 46.2437 164.418 46.8723 165.71 47.501L163.405 50.6966C159.982 50.1727 157.38 48.8631 155.599 46.7675C154.551 45.4753 154.027 44.0783 154.027 42.5765V31.9419C154.027 30.7893 153.521 30.0384 152.508 29.6892C152.229 29.5844 151.949 29.532 151.67 29.532H149.103Z" fill="#3182CE"/>
<path d="M91.5256 58.3239V57.7273H96.799V58.3239H94.4943V65H93.8303V58.3239H91.5256ZM99.4917 65.1136C99.0205 65.1136 98.6039 64.9941 98.2417 64.755C97.8818 64.5159 97.6001 64.1856 97.3965 63.7642C97.1929 63.3404 97.0911 62.8516 97.0911 62.2976C97.0911 61.7389 97.1929 61.2476 97.3965 60.8239C97.6001 60.3977 97.8818 60.0663 98.2417 59.8295C98.6039 59.5904 99.0205 59.4709 99.4917 59.4709C99.9628 59.4709 100.378 59.5904 100.738 59.8295C101.098 60.0687 101.38 60.4001 101.583 60.8239C101.789 61.2476 101.892 61.7389 101.892 62.2976C101.892 62.8516 101.79 63.3404 101.587 63.7642C101.383 64.1856 101.1 64.5159 100.738 64.755C100.378 64.9941 99.9628 65.1136 99.4917 65.1136ZM99.4917 64.5348C99.8704 64.5348 100.191 64.433 100.454 64.2294C100.717 64.0258 100.916 63.7547 101.051 63.4162C101.188 63.0777 101.257 62.7048 101.257 62.2976C101.257 61.8904 101.188 61.5163 101.051 61.1754C100.916 60.8345 100.717 60.5611 100.454 60.3551C100.191 60.1491 99.8704 60.0462 99.4917 60.0462C99.1152 60.0462 98.7944 60.1491 98.5293 60.3551C98.2665 60.5611 98.0665 60.8345 97.9292 61.1754C97.7942 61.5163 97.7267 61.8904 97.7267 62.2976C97.7267 62.7048 97.7942 63.0777 97.9292 63.4162C98.0665 63.7547 98.2665 64.0258 98.5293 64.2294C98.7921 64.433 99.1129 64.5348 99.4917 64.5348ZM106.746 62.9155V59.5455H107.378V65H106.746V64.0945H106.696C106.568 64.3738 106.366 64.607 106.089 64.794C105.812 64.9787 105.473 65.071 105.073 65.071C104.725 65.071 104.416 64.9953 104.146 64.8438C103.876 64.6899 103.665 64.465 103.511 64.169C103.357 63.8731 103.28 63.5097 103.28 63.0788V59.5455H103.912V63.0398C103.912 63.4659 104.037 63.8092 104.288 64.0696C104.539 64.3277 104.861 64.4567 105.254 64.4567C105.5 64.4567 105.737 64.3975 105.964 64.2791C106.192 64.1607 106.379 63.9879 106.526 63.7607C106.672 63.531 106.746 63.2493 106.746 62.9155ZM109.051 65V59.5455H109.666V60.3835H109.712C109.821 60.1089 110.01 59.8875 110.28 59.7195C110.552 59.549 110.86 59.4638 111.203 59.4638C111.255 59.4638 111.313 59.465 111.377 59.4673C111.441 59.4697 111.494 59.4721 111.537 59.4744V60.1172C111.509 60.1125 111.459 60.1054 111.388 60.0959C111.317 60.0864 111.24 60.0817 111.157 60.0817C110.873 60.0817 110.62 60.142 110.397 60.2628C110.177 60.3812 110.003 60.5457 109.875 60.7564C109.747 60.9671 109.683 61.2074 109.683 61.4773V65H109.051ZM116.952 65.1243C116.623 65.1243 116.322 65.0604 116.05 64.9325C115.777 64.8023 115.561 64.6153 115.4 64.3714C115.239 64.1252 115.158 63.8269 115.158 63.4766C115.158 63.2067 115.209 62.9794 115.311 62.7947C115.413 62.6101 115.557 62.4586 115.744 62.3402C115.931 62.2218 116.153 62.1283 116.408 62.0597C116.664 61.991 116.946 61.9377 117.254 61.8999C117.559 61.862 117.817 61.8288 118.028 61.8004C118.241 61.772 118.403 61.727 118.514 61.6655C118.625 61.6039 118.681 61.5045 118.681 61.3672V61.2393C118.681 60.8677 118.57 60.5753 118.347 60.3622C118.127 60.1468 117.81 60.0391 117.396 60.0391C117.003 60.0391 116.682 60.1255 116.433 60.2983C116.187 60.4711 116.014 60.6747 115.915 60.9091L115.315 60.6925C115.438 60.3942 115.608 60.1562 115.826 59.9787C116.044 59.7988 116.288 59.6697 116.558 59.5916C116.827 59.5111 117.101 59.4709 117.378 59.4709C117.586 59.4709 117.803 59.4981 118.028 59.5526C118.255 59.607 118.466 59.7017 118.66 59.8366C118.854 59.9692 119.011 60.1551 119.132 60.3942C119.253 60.6309 119.313 60.9316 119.313 61.2962V65H118.681V64.1371H118.642C118.566 64.2981 118.454 64.4543 118.305 64.6058C118.156 64.7573 117.969 64.8816 117.744 64.9787C117.519 65.0758 117.255 65.1243 116.952 65.1243ZM117.037 64.5455C117.373 64.5455 117.664 64.4709 117.911 64.3217C118.157 64.1726 118.346 63.9749 118.479 63.7287C118.614 63.4801 118.681 63.2067 118.681 62.9084V62.12C118.634 62.165 118.554 62.2053 118.443 62.2408C118.334 62.2763 118.208 62.3082 118.063 62.3366C117.921 62.3627 117.779 62.3852 117.637 62.4041C117.495 62.4231 117.367 62.4396 117.254 62.4538C116.946 62.4917 116.683 62.5509 116.465 62.6314C116.247 62.7119 116.08 62.8232 115.964 62.9652C115.848 63.1049 115.79 63.2848 115.79 63.505C115.79 63.8364 115.909 64.0933 116.146 64.2756C116.382 64.4555 116.679 64.5455 117.037 64.5455ZM121.627 61.5909V65H120.995V59.5455H121.609V60.4013H121.666C121.794 60.1219 121.993 59.8982 122.262 59.7301C122.535 59.5597 122.871 59.4744 123.271 59.4744C123.638 59.4744 123.96 59.5514 124.237 59.7053C124.516 59.8568 124.733 60.0805 124.887 60.3764C125.043 60.6723 125.121 61.0357 125.121 61.4666V65H124.489V61.5057C124.489 61.0582 124.364 60.7043 124.113 60.4439C123.864 60.1835 123.53 60.0533 123.111 60.0533C122.825 60.0533 122.57 60.1148 122.348 60.2379C122.125 60.361 121.949 60.5386 121.819 60.7706C121.691 61.0002 121.627 61.2737 121.627 61.5909ZM128.749 65.1136C128.302 65.1136 127.91 64.9953 127.574 64.7585C127.238 64.5218 126.975 64.1915 126.786 63.7678C126.599 63.344 126.505 62.8504 126.505 62.2869C126.505 61.7259 126.599 61.2346 126.786 60.8132C126.975 60.3894 127.239 60.0604 127.578 59.826C127.916 59.5893 128.31 59.4709 128.76 59.4709C129.092 59.4709 129.367 59.5301 129.588 59.6484C129.808 59.7644 129.984 59.9089 130.117 60.0817C130.249 60.2545 130.352 60.4226 130.426 60.5859H130.482V57.7273H131.118V65H130.5V63.9879H130.426C130.352 64.1536 130.248 64.3241 130.113 64.4993C129.978 64.6721 129.799 64.8177 129.577 64.9361C129.357 65.0545 129.081 65.1136 128.749 65.1136ZM128.824 64.5348C129.177 64.5348 129.477 64.4389 129.726 64.2472C129.975 64.053 130.164 63.7867 130.294 63.4482C130.427 63.1072 130.493 62.7166 130.493 62.2763C130.493 61.8407 130.428 61.456 130.298 61.1222C130.168 60.786 129.978 60.5232 129.73 60.3338C129.481 60.142 129.179 60.0462 128.824 60.0462C128.459 60.0462 128.152 60.1456 127.901 60.3445C127.652 60.541 127.463 60.8073 127.333 61.1435C127.205 61.4796 127.141 61.8572 127.141 62.2763C127.141 62.7 127.206 63.0824 127.336 63.4233C127.466 63.7642 127.656 64.0353 127.904 64.2365C128.155 64.4354 128.462 64.5348 128.824 64.5348ZM135.422 58.3239V57.7273H140.695V58.3239H138.391V65H137.727V58.3239H135.422ZM141.493 65V59.5455H142.107V60.3835H142.153C142.262 60.1089 142.452 59.8875 142.721 59.7195C142.994 59.549 143.301 59.4638 143.645 59.4638C143.697 59.4638 143.755 59.465 143.819 59.4673C143.883 59.4697 143.936 59.4721 143.979 59.4744V60.1172C143.95 60.1125 143.9 60.1054 143.829 60.0959C143.758 60.0864 143.681 60.0817 143.599 60.0817C143.314 60.0817 143.061 60.142 142.839 60.2628C142.618 60.3812 142.444 60.5457 142.317 60.7564C142.189 60.9671 142.125 61.2074 142.125 61.4773V65H141.493ZM146.581 65.1243C146.252 65.1243 145.951 65.0604 145.679 64.9325C145.406 64.8023 145.19 64.6153 145.029 64.3714C144.868 64.1252 144.787 63.8269 144.787 63.4766C144.787 63.2067 144.838 62.9794 144.94 62.7947C145.042 62.6101 145.186 62.4586 145.373 62.3402C145.56 62.2218 145.782 62.1283 146.037 62.0597C146.293 61.991 146.575 61.9377 146.882 61.8999C147.188 61.862 147.446 61.8288 147.657 61.8004C147.87 61.772 148.032 61.727 148.143 61.6655C148.254 61.6039 148.31 61.5045 148.31 61.3672V61.2393C148.31 60.8677 148.199 60.5753 147.976 60.3622C147.756 60.1468 147.439 60.0391 147.025 60.0391C146.632 60.0391 146.311 60.1255 146.062 60.2983C145.816 60.4711 145.643 60.6747 145.544 60.9091L144.944 60.6925C145.067 60.3942 145.237 60.1562 145.455 59.9787C145.673 59.7988 145.917 59.6697 146.186 59.5916C146.456 59.5111 146.73 59.4709 147.007 59.4709C147.215 59.4709 147.432 59.4981 147.657 59.5526C147.884 59.607 148.095 59.7017 148.289 59.8366C148.483 59.9692 148.64 60.1551 148.761 60.3942C148.882 60.6309 148.942 60.9316 148.942 61.2962V65H148.31V64.1371H148.271C148.195 64.2981 148.083 64.4543 147.934 64.6058C147.784 64.7573 147.597 64.8816 147.373 64.9787C147.148 65.0758 146.884 65.1243 146.581 65.1243ZM146.666 64.5455C147.002 64.5455 147.293 64.4709 147.539 64.3217C147.786 64.1726 147.975 63.9749 148.108 63.7287C148.243 63.4801 148.31 63.2067 148.31 62.9084V62.12C148.263 62.165 148.183 62.2053 148.072 62.2408C147.963 62.2763 147.837 62.3082 147.692 62.3366C147.55 62.3627 147.408 62.3852 147.266 62.4041C147.124 62.4231 146.996 62.4396 146.882 62.4538C146.575 62.4917 146.312 62.5509 146.094 62.6314C145.876 62.7119 145.709 62.8232 145.593 62.9652C145.477 63.1049 145.419 63.2848 145.419 63.505C145.419 63.8364 145.538 64.0933 145.775 64.2756C146.011 64.4555 146.308 64.5455 146.666 64.5455ZM154.651 59.5455L152.658 65H151.984L149.991 59.5455H150.677L152.296 64.1655H152.346L153.965 59.5455H154.651ZM157.897 65.1136C157.388 65.1136 156.948 64.9953 156.576 64.7585C156.204 64.5194 155.917 64.1892 155.713 63.7678C155.512 63.344 155.411 62.8563 155.411 62.3047C155.411 61.7554 155.512 61.2678 155.713 60.8416C155.917 60.4131 156.197 60.0781 156.555 59.8366C156.915 59.5928 157.33 59.4709 157.801 59.4709C158.097 59.4709 158.383 59.5253 158.657 59.6342C158.932 59.7408 159.178 59.9053 159.396 60.1278C159.616 60.348 159.79 60.6262 159.918 60.9624C160.046 61.2962 160.11 61.6915 160.11 62.1484V62.4609H155.848V61.9034H159.463C159.463 61.553 159.392 61.2382 159.25 60.9588C159.11 60.6771 158.915 60.4545 158.664 60.2912C158.416 60.1278 158.128 60.0462 157.801 60.0462C157.456 60.0462 157.151 60.1385 156.889 60.3232C156.626 60.5078 156.42 60.7517 156.271 61.0547C156.124 61.3577 156.049 61.6892 156.047 62.049V62.3828C156.047 62.8161 156.122 63.1948 156.271 63.5192C156.422 63.8411 156.637 64.0909 156.914 64.2685C157.191 64.446 157.518 64.5348 157.897 64.5348C158.155 64.5348 158.381 64.4946 158.575 64.4141C158.772 64.3336 158.936 64.2259 159.069 64.0909C159.204 63.9536 159.306 63.8033 159.374 63.6399L159.975 63.8352C159.892 64.0649 159.756 64.2768 159.566 64.4709C159.379 64.665 159.145 64.8213 158.863 64.9396C158.584 65.0556 158.262 65.1136 157.897 65.1136ZM162.135 57.7273V65H161.502V57.7273H162.135Z" fill="black"/>
</svg>
