<svg width="47" height="40" viewBox="0 0 47 40" fill="none" xmlns="http://www.w3.org/2000/svg">
<g clip-path="url(#clip0_3_54)">
<path d="M27.7538 13.86H28.3594C33.1669 13.86 37.9745 13.8882 42.7808 13.8421C44.2539 13.8292 45.764 14.7661 46.0134 16.4885C46.1314 17.2493 45.9592 18.0269 45.5313 18.665C45.1034 19.3032 44.4516 19.7545 43.7069 19.9282C43.6802 19.9346 43.6598 19.9641 43.5937 20.0166C45.3378 20.6164 46.2767 21.7852 45.9765 23.6665C45.7437 25.1287 44.7106 25.9451 42.9347 26.2129C43.0237 26.3872 43.0619 26.5872 43.1789 26.6769C44.3239 27.5547 44.7577 28.6966 44.3964 30.0986C44.0707 31.3674 43.0746 32.1132 41.3814 32.3683C41.5162 32.5733 41.59 32.7745 41.7312 32.8809C42.7362 33.6754 43.1789 34.7097 42.9334 35.9643C42.679 37.2818 41.8381 38.0943 40.5392 38.3993C40.3218 38.4423 40.1003 38.4604 39.8789 38.4531C33.8018 38.4531 27.7259 38.4787 21.65 38.4326C20.6322 38.4249 19.6145 38.1763 18.6184 37.9366C17.7278 37.7226 16.8768 37.3574 16.0002 37.0844C15.6822 36.9844 15.5601 36.8422 15.5601 36.4846C15.5741 30.6074 15.5601 24.7302 15.5804 18.8529C15.5903 18.5896 15.6751 18.3348 15.8247 18.1186C17.2037 16.1245 18.5713 14.1201 20.0012 12.1645C21.4159 10.2293 22.1474 8.0635 22.4336 5.70159C22.6461 3.95739 22.8865 2.21575 23.1168 0.474115C23.1359 0.331862 23.1715 0.193453 23.2122 -0.00646973C25.1739 0.143473 27.0707 0.449765 28.5057 1.97482C29.5832 3.12053 29.6341 4.52768 29.3275 5.98225C28.8555 8.23139 28.3683 10.4767 27.8989 12.7258C27.8238 13.0859 27.8047 13.4563 27.7538 13.86ZM33.8488 22.8565C33.7216 21.1328 32.8654 19.75 31.1849 18.9337C30.9305 18.8055 30.8096 18.6902 30.788 18.3813C30.7677 17.994 30.6011 17.6291 30.3224 17.3614C30.0437 17.0938 29.674 16.9436 29.2889 16.9416C28.9039 16.9397 28.5327 17.0861 28.2513 17.3509C27.9699 17.6157 27.7997 17.9788 27.7755 18.366C27.7551 18.703 27.6177 18.8196 27.3493 18.9452C25.5466 19.7898 24.464 21.7646 24.7604 23.6434C25.1421 26.0681 26.8417 27.5765 29.3262 27.7008C29.6232 27.7091 29.9113 27.8045 30.1552 27.9754C30.3991 28.1462 30.5883 28.385 30.6995 28.6625C30.8107 28.94 30.8391 29.2442 30.7812 29.5377C30.7233 29.8312 30.5817 30.1014 30.3737 30.315C30.1657 30.5286 29.9003 30.6765 29.6101 30.7404C29.3199 30.8044 29.0174 30.7817 28.7399 30.675C28.4623 30.5684 28.2216 30.3825 28.0474 30.1401C27.8732 29.8977 27.7729 29.6094 27.7589 29.3105C27.6915 28.3121 26.9829 27.6188 26.1178 27.7034C25.2006 27.7944 24.6116 28.5838 24.7261 29.5886C24.9296 31.3686 25.8265 32.6643 27.4383 33.4179C27.5392 33.4528 27.626 33.5198 27.6857 33.6088C27.7453 33.6978 27.7746 33.804 27.7691 33.9113C27.788 34.3072 27.9568 34.6808 28.2407 34.9551C28.5247 35.2295 28.9022 35.3838 29.2957 35.3863C29.6809 35.3785 30.049 35.2242 30.326 34.9544C30.603 34.6846 30.7685 34.3193 30.7892 33.9318C30.8109 33.6165 30.9432 33.5037 31.1925 33.3858C32.177 32.9344 32.968 32.1421 33.4217 31.1529C33.8753 30.1637 33.9614 29.0433 33.6644 27.9956C33.1313 26.022 31.4355 24.7238 29.2537 24.6212C28.9038 24.619 28.5652 24.4958 28.2947 24.2721C28.0242 24.0484 27.8382 23.7379 27.7679 23.3926C27.6975 23.0472 27.7471 22.688 27.9083 22.3751C28.0695 22.0622 28.3325 21.8145 28.6533 21.6737C29.6494 21.2084 30.7155 21.9082 30.8007 23.0834C30.8656 23.9805 31.5462 24.6546 32.3693 24.6212C33.2153 24.5879 33.859 23.8792 33.8488 22.8565Z" fill="#1A5388"/>
<path d="M12.5195 28.516C12.5195 31.7677 12.5195 35.0194 12.5195 38.2712C12.5195 39.4015 11.9356 39.9987 10.8314 39.9987C7.89517 39.9987 4.959 39.9987 2.02282 39.9987C0.936384 39.9987 0.333374 39.4002 0.333374 38.3186C0.333374 31.751 0.333374 25.183 0.333374 18.6146C0.333374 17.5497 0.931296 16.9371 1.97321 16.9358C4.94161 16.9358 7.91002 16.9358 10.8784 16.9358C11.9178 16.9358 12.5195 17.5535 12.5195 18.6159C12.5204 21.9164 12.5204 25.2164 12.5195 28.516Z" fill="#1A5388"/>
</g>
<defs>
<clipPath id="clip0_3_54">
<rect width="45.7143" height="40" fill="white" transform="translate(0.333374)"/>
</clipPath>
</defs>
</svg>
