<svg width="31" height="40" viewBox="0 0 31 40" fill="none" xmlns="http://www.w3.org/2000/svg">
<g clip-path="url(#clip0_3_59)">
<path d="M25.7327 40C25.5086 38.743 25.0111 37.551 24.2754 36.5084C22.1143 33.3547 19.0924 31.7862 15.2909 31.8331C14.2853 31.8446 13.285 32.1835 12.2794 32.3546C12.1368 32.3796 11.9234 32.3785 11.838 32.2941C10.5348 31.0113 9.24502 29.7098 7.95215 28.4114C7.93654 28.3958 7.93342 28.3676 7.9126 28.3071C8.04584 28.3009 8.16867 28.2883 8.2915 28.2883C13.8231 28.2883 19.3551 28.2883 24.8874 28.2883C25.6543 28.2872 26.4139 28.438 27.1224 28.7318C27.831 29.0257 28.4746 29.457 29.0163 30.0009C29.558 30.5447 29.9871 31.1904 30.2789 31.9009C30.5707 32.6115 30.7195 33.3727 30.7168 34.141C30.7168 36.0926 30.7168 38.0442 30.7168 39.9958L25.7327 40Z" fill="#1A5388"/>
<path d="M0.333374 40C0.333374 38.0237 0.333374 36.0464 0.333374 34.0701C0.344825 31.5672 2.05095 29.2812 4.42432 28.595C4.56589 28.5532 4.80115 28.5814 4.89588 28.6753C6.49582 30.2542 8.08015 31.8488 9.66657 33.4413C9.69259 33.4673 9.70821 33.5049 9.68218 33.4632C8.915 34.2088 8.11242 34.8909 7.4306 35.6783C6.36114 36.9091 5.63222 38.3991 5.31642 40H0.333374Z" fill="#1A5388"/>
<path d="M19.5026 40L13.821 34.3506C14.614 34.1289 15.4432 34.068 16.26 34.1713C19.4266 34.5352 21.7 36.1705 23.0408 39.0728C23.174 39.3628 23.2323 39.6871 23.326 39.9958L19.5026 40Z" fill="#1A5388"/>
<path d="M7.73669 40C8.32587 38.0091 9.52401 36.4865 11.2759 35.3936C11.3318 35.3675 11.3932 35.3555 11.4547 35.3588C11.5163 35.3621 11.576 35.3805 11.6288 35.4123C13.132 36.8995 14.6271 38.3943 16.1143 39.8968C16.1382 39.9207 16.1414 39.9656 16.1538 40.0011L7.73669 40Z" fill="#1A5388"/>
<path d="M15.5084 9.39743C12.3532 9.39743 9.19706 9.39743 6.04193 9.40473C5.75255 9.40473 5.60161 9.31504 5.48086 9.05849C4.62832 7.23448 4.93644 5.53353 6.05859 3.94834C7.11932 2.45492 8.61621 1.51945 10.3109 0.923959C14.1135 -0.402596 17.8963 -0.335851 21.6094 1.28167C22.9626 1.8709 24.1431 2.72086 25.0008 3.94417C26.1157 5.53249 26.4269 7.22927 25.5765 9.05432C25.4557 9.31504 25.3006 9.39847 25.0133 9.39847C21.8447 9.39326 18.677 9.39743 15.5084 9.39743Z" fill="#1A5388"/>
<path d="M23.6621 15.5869C23.9005 18.214 23.6184 20.6908 21.9008 22.7912C19.8908 25.2493 17.2936 26.386 14.152 25.8093C10.8209 25.1961 8.70154 23.0978 7.66579 19.8878C7.21714 18.4966 7.37329 17.0574 7.34726 15.5619C9.87574 17.1377 12.6561 17.5851 15.5146 17.5861C18.373 17.5872 21.1524 17.1565 23.6621 15.5869Z" fill="#1A5388"/>
<path d="M7.34009 11.7617H23.7091C23.6924 12.3718 23.3968 12.8171 22.9804 13.1946C22.1674 13.9445 21.1754 14.3627 20.1282 14.6411C16.6931 15.5547 13.2777 15.5234 9.92686 14.2855C9.30229 14.0561 8.72976 13.6681 8.18534 13.2791C7.93724 13.1086 7.73186 12.8829 7.58523 12.6197C7.4386 12.3564 7.3547 12.0628 7.34009 11.7617Z" fill="#1A5388"/>
</g>
<defs>
<clipPath id="clip0_3_59">
<rect width="30.3896" height="40" fill="white" transform="translate(0.333374)"/>
</clipPath>
</defs>
</svg>
