<svg width="41" height="40" viewBox="0 0 41 40" fill="none" xmlns="http://www.w3.org/2000/svg">
<g clip-path="url(#clip0_3_69)">
<path d="M26.7636 12.808C29.5498 12.808 32.3373 12.7634 35.1223 12.8209C37.6956 12.8737 40.0512 15.1678 40.3038 17.7634C40.3468 18.214 40.3713 18.6681 40.3713 19.1211C40.3775 23.189 40.3775 27.2569 40.3713 31.3248C40.3713 33.0215 39.7696 34.4355 38.4137 35.4787C37.704 36.0459 36.8377 36.3779 35.9335 36.4292C35.6216 36.4445 35.5436 36.5724 35.553 36.8598C35.5692 37.3715 35.553 37.8843 35.553 38.3959C35.553 39.0284 35.3353 39.5494 34.7534 39.8439C34.1715 40.1384 33.6396 39.9859 33.131 39.6092C31.7685 38.6141 30.3983 37.6296 29.0203 36.6557C28.8222 36.5198 28.5894 36.4444 28.3499 36.4386C25.2145 36.4245 22.0791 36.4292 18.9449 36.428C15.6861 36.428 13.1792 33.9826 13.1548 30.7017C13.1245 26.6338 13.1245 22.5659 13.1548 18.498C13.1815 15.2569 15.657 12.8103 18.8751 12.7904C21.5019 12.774 24.1287 12.7904 26.7566 12.7904L26.7636 12.808ZM21.9476 26.0913H26.1945V30.3532C28.1067 27.9429 29.9386 25.636 31.838 23.2433H27.5795V18.9943L21.9476 26.0913Z" fill="#1A5388"/>
<path d="M27.867 9.92505H25.8058C23.5549 9.92505 21.3052 9.91683 19.0555 9.92505C14.989 9.94382 11.6721 12.4268 10.6502 16.2522C10.4626 16.9723 10.3618 17.7126 10.35 18.4571C10.3104 20.5493 10.3302 22.6439 10.3418 24.7361C10.3534 24.857 10.3312 24.9788 10.2777 25.0877C10.2242 25.1965 10.1416 25.2882 10.0392 25.3522C9.31065 25.8579 8.59721 26.3848 7.87912 26.907C7.39031 27.259 6.86658 27.3482 6.32539 27.0677C5.7842 26.7873 5.52932 26.3285 5.53863 25.7101C5.5491 25.0541 5.53863 24.3982 5.53863 23.8009C4.86709 23.6178 4.20836 23.5275 3.6276 23.2646C1.74566 22.4127 0.729626 20.8873 0.706349 18.8208C0.658632 14.4158 0.649321 10.0084 0.706349 5.60329C0.747084 2.45027 3.28659 0.0142269 6.4185 0.00835974C11.6729 -0.00181002 16.9284 -0.00181002 22.1851 0.00835974C25.2367 0.00835974 27.6877 2.32472 27.853 5.40615C27.9333 6.8882 27.867 8.38081 27.867 9.92505Z" fill="#1A5388"/>
</g>
<defs>
<clipPath id="clip0_3_69">
<rect width="39.708" height="40" fill="white" transform="translate(0.666748)"/>
</clipPath>
</defs>
</svg>
