<svg width="40" height="40" viewBox="0 0 40 40" fill="none" xmlns="http://www.w3.org/2000/svg">
<g clip-path="url(#clip0_3_74)">
<path d="M0 28.8168C0.046652 28.6308 0.0964142 28.4449 0.138919 28.2568C0.553604 26.4577 1.57062 25.1152 3.13191 24.1676C3.28943 24.0663 3.4144 23.9211 3.49164 23.7497C4.55116 21.3227 5.58995 18.8873 6.65258 16.4614C7.54208 14.4303 9.10129 13.3511 11.3084 13.3041C13.0273 13.2675 14.7472 13.2915 16.4661 13.3041C16.5843 13.3041 16.7771 13.4086 16.8072 13.5026C17.1182 14.5306 17.395 15.567 17.6956 16.6452H17.3027C15.4024 16.6452 13.5011 16.6651 11.6008 16.6379C10.6408 16.6244 10.0198 17.0182 9.64764 17.9146C8.94993 19.5925 8.21387 21.2579 7.49439 22.9233C7.44877 23.0277 7.41249 23.1322 7.34718 23.3056H7.83754C12.7764 23.3056 17.7153 23.3039 22.6542 23.3004C22.962 23.2903 23.2631 23.3915 23.5033 23.5856C24.8414 24.6302 26.3004 25.5072 27.8481 26.1976C29.1534 26.7785 30.4534 26.7983 31.7431 26.1976C32.503 25.8413 33.2432 25.4412 33.9751 25.0326C34.199 24.9083 34.3286 24.9188 34.5059 25.0932C35.6214 26.1923 36.343 27.5046 36.3834 29.0843C36.4435 31.4141 36.4518 33.7481 36.3917 36.0842C36.3419 37.9951 34.9683 39.5257 33.1115 39.9237C33.0405 39.9448 32.9712 39.9714 32.9042 40.0031H31.6601C31.6065 39.9723 31.5499 39.9471 31.4912 39.9279C29.5826 39.5246 28.2773 38.0129 28.1571 36.0456C28.1353 35.7029 28.1571 35.3581 28.1571 35.0269H8.29369C8.29369 35.3403 8.30199 35.6297 8.29369 35.915C8.27366 36.7801 7.98821 37.6178 7.47659 38.3128C6.96496 39.0078 6.25228 39.526 5.43652 39.7963C5.20637 39.8725 4.97207 39.9352 4.73985 40.0052H3.5694C3.49949 39.9757 3.42782 39.9505 3.3548 39.93C1.79973 39.5863 0.751616 38.6543 0.210452 37.1478C0.124405 36.9075 0.0694597 36.6547 0.00311013 36.4081L0 28.8168ZM8.2771 31.6377C8.84626 31.6377 9.41749 31.6471 9.9825 31.6377C10.4094 31.6268 10.8152 31.4483 11.1133 31.1402C11.4114 30.8321 11.5783 30.4188 11.5783 29.9885C11.5783 29.5582 11.4114 29.1449 11.1133 28.8368C10.8152 28.5287 10.4094 28.3502 9.9825 28.3393C8.84626 28.3268 7.70933 28.3268 6.57171 28.3393C6.14483 28.3502 5.73905 28.5287 5.44092 28.8368C5.1428 29.1449 4.97594 29.5582 4.97594 29.9885C4.97594 30.4188 5.1428 30.8321 5.44092 31.1402C5.73905 31.4483 6.14483 31.6268 6.57171 31.6377C7.13983 31.6565 7.70899 31.6419 8.2771 31.6419V31.6377ZM28.1281 31.6377C28.6962 31.6377 29.2684 31.646 29.8334 31.6377C30.2676 31.6364 30.6835 31.4614 30.9896 31.1512C31.2957 30.8409 31.467 30.4208 31.4658 29.9833C31.4645 29.5458 31.2909 29.1267 30.983 28.8182C30.6751 28.5097 30.2583 28.337 29.8241 28.3383C28.7003 28.3278 27.5762 28.3278 26.4517 28.3383C26.0245 28.3503 25.6189 28.53 25.3214 28.8392C25.0239 29.1484 24.8581 29.5624 24.8593 29.9931C24.8605 30.4237 25.0287 30.8369 25.3279 31.1443C25.6272 31.4518 26.0338 31.6292 26.461 31.6387C27.0167 31.6502 27.5765 31.6419 28.1281 31.6419V31.6377Z" fill="#1A5388"/>
<path d="M39.731 7.91727C39.731 8.76457 39.7082 9.61188 39.731 10.4571C39.8274 13.5486 38.7213 16.1814 36.7339 18.4715C34.9715 20.5015 32.8234 22.0133 30.4162 23.1657C30.0492 23.3412 29.676 23.3966 29.2965 23.2158C26.2154 21.7531 23.548 19.7681 21.6539 16.8636C20.4646 15.0794 19.8393 12.9741 19.8604 10.8249C19.8759 8.66219 19.8604 6.49951 19.8604 4.33684C19.8604 3.5961 20.1413 3.1876 20.8183 2.95566C23.6371 1.99343 26.4362 1.02284 29.2519 0.086726C29.6047 -0.0256617 29.9829 -0.0285738 30.3374 0.0783678C33.151 1.01866 35.9533 1.98507 38.7576 2.95148C39.4615 3.19387 39.73 3.59401 39.731 4.36087V7.91727ZM29.1566 11.7484C28.576 11.2522 28.0483 10.7737 27.4906 10.3317C27.1581 10.0655 26.7354 9.94119 26.313 9.98553C25.8907 10.0299 25.5024 10.2393 25.2316 10.5689C24.6562 11.2689 24.6997 12.2405 25.3778 12.8538C26.353 13.7272 27.343 14.5832 28.3479 15.4218C28.5102 15.5635 28.6992 15.6707 28.9036 15.7368C29.108 15.8029 29.3235 15.8267 29.5373 15.8067C29.751 15.7867 29.9586 15.7233 30.1474 15.6204C30.3362 15.5174 30.5024 15.377 30.636 15.2077C32.1903 13.2456 33.7302 11.2706 35.2555 9.28278C35.5144 8.94229 35.6295 8.51259 35.5757 8.08707C35.522 7.66155 35.3037 7.27462 34.9684 7.01041C34.6318 6.73922 34.2031 6.61201 33.7744 6.65617C33.3457 6.70033 32.9514 6.91232 32.6762 7.24652C32.3901 7.58189 32.1288 7.93712 31.8572 8.28502L29.1566 11.7484Z" fill="#1A5388"/>
</g>
<defs>
<clipPath id="clip0_3_74">
<rect width="39.7403" height="40" fill="white"/>
</clipPath>
</defs>
</svg>
