<svg width="41" height="40" viewBox="0 0 41 40" fill="none" xmlns="http://www.w3.org/2000/svg">
<g clip-path="url(#clip0_3_79)">
<path d="M40.5297 13.633C40.4334 14.0698 40.3583 14.5129 40.2376 14.9433C39.2766 18.3927 36.3015 20.7061 32.6585 20.8443C32.4077 20.8539 32.1568 20.8517 31.906 20.8517C23.9851 20.8517 16.0641 20.8783 8.14315 20.8369C5.37336 20.822 2.9486 22.79 2.4501 25.536C1.9209 28.452 4.02392 31.5316 6.94823 32.0055C7.37829 32.0714 7.81293 32.1023 8.24793 32.098C13.2379 32.1044 18.2281 32.1044 23.2188 32.098H23.7152V34.4826C23.5649 34.4901 23.4241 34.5017 23.2833 34.5017C18.2666 34.5017 13.2499 34.5336 8.23311 34.4911C5.13204 34.4646 2.59615 33.2648 1.0435 30.453C-1.22779 26.3542 0.349201 20.6222 5.25799 18.9411C6.25749 18.6014 7.30599 18.4298 8.36118 18.4331C16.3223 18.4331 24.2832 18.4331 32.2436 18.4331C33.7307 18.4331 35.1076 18.0739 36.2274 17.0591C38.0013 15.4523 38.4839 13.4173 37.8615 11.1623C37.2392 8.90731 35.6675 7.65123 33.3909 7.26548C33.0002 7.20507 32.6051 7.17699 32.2098 7.18153C29.0551 7.17516 25.8997 7.17516 22.7436 7.18153H22.2567V4.7884C22.407 4.78202 22.5361 4.77033 22.6642 4.77033C25.8997 4.77033 29.1341 4.75864 32.3685 4.77033C36.2845 4.78733 39.4227 7.24848 40.3265 10.9955C40.4038 11.3143 40.4631 11.6384 40.5297 11.9604V13.633Z" fill="#1A5388"/>
<path d="M40.5298 30.4986C39.5688 34.0958 37.0974 36.6621 34.6028 39.204C34.3446 39.4676 34.0641 39.7088 33.7498 40.0021C33.3116 39.5866 32.8745 39.1923 32.4596 38.7758C30.8128 37.1223 29.294 35.3625 28.1202 33.3317C27.4852 32.2276 26.9486 31.0831 26.9772 29.7537C27.0375 26.9366 28.3785 24.9504 30.8932 23.7794C34.3044 22.1854 38.4162 23.6593 39.9233 26.995C40.207 27.623 40.335 28.3212 40.5351 28.9864L40.5298 30.4986ZM34.8981 30.8121V28.5019H32.6109V30.81L34.8981 30.8121Z" fill="#1A5388"/>
<path d="M0 7.83398H18.9218V12.5788H16.8654V14.82H14.4787V12.6096H4.41347V14.8242H2.04374V12.5926H0V7.83398Z" fill="#1A5388"/>
<path d="M16.8126 5.41962H2.07666C2.12958 5.27085 2.16556 5.14864 2.21531 5.03175C2.87468 3.47493 3.54146 1.92131 4.19343 0.355995C4.29821 0.106267 4.41675 0 4.70886 0C7.87696 0.0120436 11.0454 0.0141689 14.2142 0.00637603C14.4037 0.00637603 14.5561 0.00637602 14.6524 0.236976C15.353 1.92025 16.0706 3.59714 16.7819 5.27616C16.7954 5.32322 16.8056 5.37115 16.8126 5.41962Z" fill="#1A5388"/>
</g>
<defs>
<clipPath id="clip0_3_79">
<rect width="40.5298" height="40" fill="white"/>
</clipPath>
</defs>
</svg>
