<svg width="42" height="40" viewBox="0 0 42 40" fill="none" xmlns="http://www.w3.org/2000/svg">
<g clip-path="url(#clip0_3_49)">
<path d="M20.9541 -0.000142149C21.8904 -0.00764053 22.8018 0.300907 23.5405 0.875474C24.3305 1.46035 25.1271 2.03958 25.9035 2.64474C26.7174 3.28052 27.7174 3.63242 28.7506 3.64657C29.8734 3.68376 31.0075 3.70742 32.1145 3.88322C33.9708 4.17847 35.097 5.34145 35.5574 7.14565C35.8215 8.17791 36.0596 9.2158 36.3 10.2537C36.4936 11.0802 36.9358 11.8277 37.5672 12.396C38.3165 13.0969 39.0737 13.7911 39.814 14.5022C41.3238 15.9559 41.6443 17.8198 40.7167 19.6939C40.3364 20.4613 39.9787 21.2434 39.5476 21.9804C38.8559 23.1626 38.7577 24.4033 38.9744 25.7229C39.1365 26.6643 39.2319 27.6159 39.2599 28.5706C39.2949 30.3737 38.4203 31.6821 36.8055 32.463C35.8711 32.9138 34.9052 33.3014 33.9437 33.6947C33.0205 34.057 32.2405 34.7098 31.7218 35.5542C31.2174 36.3644 30.6803 37.1555 30.1533 37.9522C28.9729 39.7384 27.1414 40.3898 25.0888 39.7609C24.1759 39.4826 23.2584 39.2189 22.3478 38.9338C21.4325 38.639 20.4472 38.6414 19.5334 38.9405C18.4377 39.2876 17.3408 39.6584 16.2191 39.8939C14.435 40.2669 12.9714 39.6505 11.9073 38.1788C11.2821 37.3155 10.7168 36.4072 10.1424 35.508C9.64095 34.703 8.89537 34.0788 8.01415 33.7263C7.10348 33.3567 6.20862 32.9544 5.30586 32.5667C3.33671 31.7215 2.35382 29.9218 2.67092 27.8032C2.821 26.8036 2.92934 25.7984 3.03428 24.7932C3.11811 23.9761 2.95749 23.1526 2.57274 22.4267C2.11158 21.5251 1.65494 20.6236 1.2028 19.7221C0.248131 17.8119 0.576511 15.9458 2.12701 14.465C2.72734 13.8925 3.31414 13.302 3.94833 12.7746C4.9108 11.9794 5.55385 10.8643 5.7595 9.63389C5.93441 8.69742 6.16574 7.7756 6.4219 6.85378C6.92745 5.05972 8.50954 3.86632 10.3715 3.79983C11.4255 3.76151 12.4794 3.69615 13.5312 3.62516C14.4067 3.56163 15.2427 3.23607 15.9302 2.69094C16.7111 2.09255 17.5101 1.51106 18.2932 0.920551C19.0764 0.330045 19.9566 -0.0170459 20.9541 -0.000142149ZM34.7461 19.9768C34.7421 17.253 33.9296 14.5916 32.4115 12.3288C30.8934 10.066 28.7376 8.30335 26.2167 7.26364C23.6958 6.22393 20.9228 5.95381 18.2482 6.48739C15.5736 7.02098 13.1174 8.33434 11.19 10.2615C9.26258 12.1887 7.95045 14.6431 7.41941 17.3147C6.88838 19.9864 7.16227 22.7552 8.20648 25.2714C9.2507 27.7877 11.0184 29.9383 13.2861 31.4516C15.5539 32.9649 18.2199 33.773 20.9473 33.7736C22.762 33.7778 24.5596 33.4237 26.2367 32.7316C27.9139 32.0395 29.4374 31.0231 30.7198 29.7409C32.0022 28.4587 33.0181 26.9359 33.7091 25.2602C34.4001 23.5845 34.7525 21.789 34.7461 19.9768Z" fill="#1A5388"/>
<path d="M33.4281 20.0591C33.357 26.9547 27.6978 32.5454 20.8751 32.4552C13.9588 32.3673 8.3809 26.7249 8.47005 19.9081C8.56032 13.0204 14.18 7.46918 20.9959 7.53004C27.9043 7.59652 33.498 13.2356 33.4281 20.0591ZM19.2287 21.0407C18.3779 20.1865 17.4977 19.2962 16.6107 18.4149C15.796 17.6058 14.6495 17.5653 13.9024 18.3079C13.1362 19.0686 13.1644 20.1853 13.9848 21.0125C15.2938 22.328 16.6073 23.6397 17.9254 24.9477C18.7717 25.7873 19.8528 25.7929 20.6901 24.9477C23.1095 22.5158 25.5244 20.079 27.9347 17.6374C28.7348 16.8271 28.7574 15.716 28.007 14.9654C27.2565 14.2149 26.1416 14.242 25.3337 15.0353C24.8417 15.5176 24.3688 16.0191 23.8768 16.5003C22.3387 18.0093 20.7984 19.5092 19.2287 21.0418V21.0407Z" fill="#1A5388"/>
</g>
<defs>
<clipPath id="clip0_3_49">
<rect width="40.5634" height="40" fill="white" transform="translate(0.666748)"/>
</clipPath>
</defs>
</svg>
